<?xml version="1.0" encoding="utf-8"?>
<!-- Generator: Adobe Illustrator 25.4.1, SVG Export Plug-In . SVG Version: 6.00 Build 0)  -->
<svg version="1.1" id="Layer_1" xmlns="http://www.w3.org/2000/svg" xmlns:xlink="http://www.w3.org/1999/xlink" x="0px" y="0px"
	 viewBox="0 0 850.39 850.39" style="enable-background:new 0 0 850.39 850.39;" xml:space="preserve">
<g>
	<path d="M412.22,293.72c0.02,1-0.04,2.35-0.13,3.03c-0.09,0.77,0.04,2.26,0.3,4.12c0.39,2.49,0.57,3.15,1.38,4.69
		c0.52,0.99,1.33,2.33,1.81,2.97c0.93,1.24,1.47,1.54,1.22,0.66c-1.43-4.91-1.34-6.22,0.23-3.35c0.47,0.82,0.93,1.63,1.04,1.79
		c0.32,0.39,0.64,0.11,0.39-0.34c-0.11-0.21-0.63-1.79-1.15-3.53c-0.52-1.72-1.09-3.44-1.29-3.8c-0.25-0.48-0.36-1.5-0.39-3.69
		c-0.09-4.03-0.3-4.75-1.88-6.27c-1.11-1.09-1.74-1.77-3.98-4.37c-1.06-1.2-0.77-0.18,0.84,3.06
		C412.16,291.86,412.2,291.95,412.22,293.72z"/>
	<path d="M406.16,348.07c0,0.11,0.27,0.14,0.61,0.07c0.34-0.09,1.16-0.21,1.85-0.29c1.56-0.18,2.28-0.68,2.9-2.02
		c0.27-0.57,0.75-1.38,1.06-1.79c0.79-1.04,0.56-1.4-0.39-0.59c-0.75,0.64-3.49,2.67-4.21,3.1
		C407.13,347.07,406.16,347.88,406.16,348.07z"/>
	<path d="M409.76,334.93c-0.25,0.57-0.04,2.15,0.43,3.03c0.52,0.99,1.68-0.66,1.45-2.04C411.36,334.19,410.33,333.67,409.76,334.93z
		"/>
	<path d="M406.66,339.4c-0.29,0.39-0.23,1.63,0.09,2.17c0.32,0.52,0.97-0.64,0.97-1.79C407.72,339.08,407.07,338.85,406.66,339.4z"
		/>
	<path d="M404.94,283.91c0.48,0.52,1.02,1.29,1.22,1.68c0.18,0.39,0.43,0.86,0.54,1.04c0.32,0.52,0.43-0.11,0.14-0.91
		c-0.13-0.39-0.23-1.18-0.23-1.77s-0.2-1.51-0.43-2.04c-0.43-0.99-3.01-3.65-3.35-3.46c-0.09,0.07,0.14,1.11,0.54,2.31
		C403.9,282.44,404.28,283.17,404.94,283.91z"/>
	<path d="M370.67,348.95c0.02-1.5-0.04-2.74-0.13-2.74c-0.07,0-0.27,0.36-0.41,0.79c-0.22,0.57-0.41,0.79-0.79,0.79
		c-0.57,0-1.7,1.09-2.27,2.22c-0.54,1.04-0.48,2.78,0.09,4.1c0.45,1.02,0.99,1.36,1.24,0.77c0.07-0.18,0.34,0.02,0.73,0.52
		c0.34,0.43,1.18,1.36,1.9,2.06c1.22,1.22,1.76,1.54,1.76,1.09c0-0.11-0.18-0.43-0.41-0.72
		C371.1,356.15,370.66,353.77,370.67,348.95z"/>
	<path d="M455.75,113.91c2.29,2.36,5.25,3.98,7.95,4.35c2.19,0.3,5.41-0.21,6.31-1.04c0.21-0.2,0.68-1.24,1.02-2.29
		c0.52-1.67,0.61-2.31,0.61-4.73c0.02-2.54-0.04-2.96-0.61-4.39c-0.84-2.13-1.61-3.3-3.28-4.96c-2.29-2.29-4.55-3.46-7.42-3.87
		c-2.6-0.36-5.86,0.48-7.08,1.83c-1.56,1.74-2.01,6.41-0.91,9.57C453.11,110.58,454.13,112.24,455.75,113.91z"/>
	<path d="M372.2,350.3c-0.05-0.27-0.25-0.5-0.45-0.5c-0.3,0-0.34,0.18-0.23,1.09c0.07,0.59,0.3,1.49,0.52,2.01
		c0.66,1.51,0.97,1.18,0.59-0.57C372.45,351.48,372.25,350.58,372.2,350.3z"/>
	<path d="M417.73,328.53c-0.32,0-1.58,1.22-2.56,2.49c-2.31,3.01-2.74,3.64-2.74,3.92c0,0.34,0.13,0.29,1.15-0.41
		c0.32-0.23,0.77-0.41,1-0.41c0.7,0,3.08-1.95,3.24-2.63C418.09,330.3,418.04,328.53,417.73,328.53z"/>
	<path d="M474,397.03c0-0.61,0.21-1.76,0.47-2.52c0.27-0.75,0.56-1.85,0.64-2.38c0.11-0.56,0.39-1.59,0.66-2.29
		c0.45-1.24,0.45-1.43,0.2-4.6c-0.14-1.81-0.32-3.39-0.41-3.48c-0.07-0.11-0.27,0.45-0.43,1.22c-0.43,2.15-0.68,2.92-1.27,3.71
		c-0.72,0.95-1.42,2.65-1.42,3.39c0,0.34-0.21,0.99-0.45,1.43c-0.25,0.47-0.45,1.22-0.45,1.7c0,0.79,0.68,2.81,1.47,4.35
		C473.55,398.57,474,398.34,474,397.03z"/>
	<path d="M465.49,368.78c0.45,3.65,0.72,3.28,1.54-2.08c0.13-0.86,0.34-2.08,0.48-2.69c0.13-0.63,0.16-1.52,0.09-2.02
		c-0.18-1.07-1.58-3.9-1.92-3.9c-0.14,0-0.18,0.16-0.09,0.38c0.18,0.48,0.56,2.71,0.56,3.31c0,0.36-0.16,0.25-0.81-0.5
		c-0.43-0.54-0.93-0.95-1.11-0.95c-0.54,0-0.38,2.01,0.32,4.07C464.92,365.47,465.33,367.35,465.49,368.78z"/>
	<path d="M456.39,267.44c0.29-0.47-0.32-0.84-1.29-0.81c-1.09,0.05-2.01,0.43-1.81,0.77C453.45,267.66,456.23,267.7,456.39,267.44z"
		/>
	<path d="M461.96,276.46c0.61,0.34,1.43,0.88,1.81,1.22c0.39,0.32,0.97,0.77,1.27,0.97c0.81,0.54,1.2,0.5,1.04-0.11
		c-0.07-0.29-0.14-0.82-0.14-1.22c0-0.52-0.29-1.07-1-1.97c-0.97-1.18-1-1.29-1-2.71c0-0.81-0.11-1.67-0.23-1.9
		c-0.27-0.5-0.9-0.59-0.9-0.14c0,0.16-0.3,0.77-0.66,1.34c-0.61,0.95-0.72,1.02-1.11,0.79c-0.59-0.38-0.81-0.11-0.81,1.02
		C460.22,275.08,460.65,275.76,461.96,276.46z"/>
	<path d="M456.68,294.19c-0.09,0.09,0.07,0.39,0.34,0.68c0.5,0.52,0.88,0.57,1.02,0.13C458.15,294.71,456.89,293.97,456.68,294.19z"
		/>
	<path d="M489.75,294.78c0.04,0.14,0.38,0.31,0.73,0.39c0.36,0.07,0.9,0.27,1.22,0.43c0.3,0.16,0.86,0.38,1.22,0.47
		c0.38,0.09,0.7,0.18,0.72,0.18c0.02,0.02,0.2-0.04,0.39-0.11c0.5-0.2,0.43-0.7-0.2-1.33c-0.47-0.47-0.77-0.56-1.85-0.56
		C490.43,294.26,489.62,294.46,489.75,294.78z"/>
	<path d="M477.69,280.07c-0.23-0.09-0.41,0.05-0.57,0.48c-0.11,0.32-0.3,0.81-0.41,1.06c-0.11,0.23-0.32,0.77-0.47,1.16
		c-0.16,0.39-0.61,1.2-1.04,1.79c-0.59,0.84-0.75,1.29-0.75,2.08c0,1.06,0.63,2.37,1.24,2.62c0.18,0.05,0.34,0.23,0.34,0.39
		c0,0.14,0.11,0.38,0.27,0.54c0.59,0.59,1.81-0.09,2.1-1.2c0.21-0.84,3.62-3.01,5.34-3.4c0.75-0.18,2.13-0.52,3.1-0.75
		c0.95-0.23,2.24-0.43,2.85-0.43c0.64,0,1.13-0.11,1.13-0.23c0-0.29-1.93-1.15-3.48-1.56c-0.63-0.16-1.16-0.32-1.22-0.38
		c-0.2-0.16,0.75-0.97,1.13-0.97c0.23,0,0.43-0.11,0.43-0.21c0-0.3-1.77-0.29-2.72,0.02c-0.41,0.14-1.11,0.52-1.54,0.84
		c-0.43,0.32-1.2,0.86-1.74,1.2c-1.04,0.66-1.72,1.63-2.08,2.88c-0.16,0.59-0.47,0.97-1.04,1.31c-1.13,0.68-1.38,0.36-0.9-1.18
		C478.17,284.5,478.19,280.27,477.69,280.07z"/>
	<path d="M483.3,271.49c0.41-0.54,0.41-1.18,0.02-1.18c-0.39,0-0.63,0.59-0.45,1.16C482.99,271.89,483.01,271.89,483.3,271.49z"/>
	<path d="M487.79,472.86c-0.2,0.07-0.36,0.29-0.36,0.47c0,0.45,0.54,0.25,0.63-0.23C488.12,472.84,488.03,472.77,487.79,472.86z"/>
	<path d="M471.81,270.81c0.82,0.59,1.81,1.5,2.19,2.04c0.39,0.54,0.95,1.11,1.24,1.25c0.3,0.16,0.81,0.68,1.15,1.16
		c0.39,0.57,0.68,0.79,0.82,0.64c0.43-0.43,0.82-1.93,0.82-3.22c0-1.61-0.59-2.87-1.74-3.62c-0.77-0.5-3.39-1.45-4.03-1.45
		c-0.5-0.02-0.29,0.56,0.34,0.93c0.99,0.61,2.19,1.68,2.04,1.85c-0.09,0.09-0.88-0.05-1.76-0.32c-0.88-0.27-1.83-0.45-2.1-0.41
		C470.4,269.74,470.58,269.93,471.81,270.81z"/>
	<path d="M452.74,287.62c0,0.14,0.72,0.82,1.58,1.51c0.84,0.66,1.86,1.61,2.26,2.08c0.38,0.48,1.22,1.11,1.85,1.4
		c1.29,0.61,1.4,0.63,1.59,0.32c0.18-0.29-0.79-1.97-1.49-2.6C457.77,289.66,452.72,287.29,452.74,287.62z"/>
	<path d="M497.84,289.8l1.09,1c0.84,0.77,1.25,1,1.85,1c0.63,0,0.77-0.09,0.77-0.5c0-0.27-0.23-0.72-0.5-1
		c-0.39-0.43-0.7-0.52-1.85-0.52L497.84,289.8z"/>
	<path d="M498.61,288.46c0.61,0.48,0.82,0.54,1.04,0.2c0.43-0.72-0.9-2.01-2.04-2.01c-0.3,0-0.29,0.11,0.05,0.7
		C497.9,287.72,498.31,288.23,498.61,288.46z"/>
	<path d="M487.38,451.83c0.7,0.45,1.63,0.95,2.08,1.11c0.43,0.14,0.99,0.23,1.22,0.2c0.25-0.05,0.84-0.16,1.34-0.23
		c0.93-0.16,2.58-0.9,2.58-1.18c0-0.09-1.04-0.16-2.29-0.16c-2.22,0-2.35-0.02-3.46-0.73c-0.64-0.41-1.52-0.81-1.97-0.88
		c-0.73-0.11-0.79-0.09-0.79,0.47C486.09,450.88,486.36,451.17,487.38,451.83z"/>
	<path d="M447.25,276.11c-0.66-1.47-0.72-1.9-0.23-2.1c0.59-0.21,0.38-0.81-0.3-0.81c-1.07,0-2.04,1.38-2.04,2.92
		c0,0.82,0.13,1.07,0.99,1.93C447.52,279.93,448.45,278.78,447.25,276.11z"/>
	<path d="M453.29,277.4c0.11,0.9,0.99,2.78,1.59,3.46c0.54,0.59,0.99,0.52,0.99-0.14c0-0.63,0.45-0.75,0.86-0.25
		c0.32,0.39,1.15,0.61,1.15,0.32c0-0.12-0.18-0.5-0.41-0.82c-0.68-0.99-1.2-3.21-0.93-4c0.2-0.54,0.16-0.9-0.21-1.85
		c-0.25-0.63-0.45-1.41-0.45-1.72c0-0.73-0.54-0.59-0.64,0.14c-0.11,0.84-0.41,1.02-0.93,0.56c-0.25-0.23-0.45-0.54-0.45-0.72
		c0-0.43-0.63-0.36-0.88,0.11c-0.45,0.86-0.54,2.63-0.16,3.35C453.02,276.24,453.22,276.94,453.29,277.4z"/>
	<path d="M484.86,273.66c0.09-0.13,0.95-0.64,1.92-1.13c0.99-0.48,1.79-0.98,1.79-1.11c0-0.13-0.57-0.21-1.27-0.21
		c-1.22,0-1.33,0.04-2.24,1c-0.54,0.56-0.97,1.16-0.97,1.34C484.09,273.93,484.64,274,484.86,273.66z"/>
	<path d="M497.29,285.52c0-0.27-0.63-0.56-0.82-0.38c-0.05,0.07-0.05,0.23,0.04,0.38C496.68,285.82,497.29,285.82,497.29,285.52z"/>
	<path d="M447.11,574.06c-1.74-1.56-3.19-1.81-3.92-0.66c-0.47,0.68-0.16,1.56,0.64,1.88c0.27,0.11,1.33,0.22,2.35,0.22
		C448.37,575.51,448.49,575.31,447.11,574.06z"/>
	<path d="M394.73,669.1c-0.9,0-2.6,1.02-3.92,2.33c-0.73,0.75-1.9,1.72-2.58,2.17c-0.68,0.45-1.56,1.22-1.95,1.72
		c-1.11,1.38-2.47,4.44-3.1,6.9c-0.72,2.87-1.04,3.49-3.35,6.59c-1.06,1.41-2.13,2.97-2.38,3.48c-0.25,0.48-0.79,1.45-1.22,2.13
		c-1.47,2.42-2.2,5.39-1.85,7.59c0.11,0.68,0.48,1.85,0.86,2.62c0.59,1.16,1,1.61,2.81,3.03c1.16,0.9,2.74,2.02,3.51,2.49
		c1.36,0.82,2.2,1.06,2.2,0.61c0-0.13-0.3-0.97-0.66-1.84c-1.4-3.42-2.47-6.74-2.47-7.54c0-1.2,0.9-2.74,2.76-4.73
		c1.49-1.59,2.81-3.56,4.28-6.43c0.9-1.72,1.43-4.01,1.7-7.2c0.21-2.45,0.36-3.05,1.11-4.78c0.84-1.97,1.61-3.06,2.11-3.06
		c0.47,0,2.13-1.59,2.56-2.46c0.66-1.29,0.81-2.38,0.38-3.05C395.34,669.36,394.96,669.1,394.73,669.1z"/>
	<path d="M460.31,592.36c-1.68,2.69-2.36,4.68-1.7,4.94c0.95,0.38,1.52-0.48,2.15-3.21c0.25-1.06,0.52-2.1,0.59-2.31
		C461.66,591,460.89,591.41,460.31,592.36z"/>
	<path d="M455.6,526.69c-0.38,0-0.64,2.37-0.36,3.19c0.23,0.68,0.93,0.84,1.15,0.27C456.75,529.22,456.18,526.69,455.6,526.69z"/>
	<path d="M464.92,536.24c-0.66,0.43-0.66,0.41-0.99-2.01c-0.3-2.26-0.73-3.12-1.5-3.03c-1.02,0.12-1.4,0.95-1.54,3.33
		c-0.18,2.87-0.41,3.48-1.9,5.03c-0.7,0.73-1.45,1.67-1.65,2.06c-0.47,0.91-0.52,2.17-0.14,2.63c0.56,0.66,1.34,0.39,2.58-0.88
		c0.64-0.66,1.54-1.36,1.99-1.56c1.95-0.81,4.17-3.64,4.17-5.3C465.94,535.79,465.71,535.72,464.92,536.24z"/>
	<path d="M459.54,650.87c-0.3-0.41-0.32-0.41-0.79,0c-0.27,0.23-0.68,0.82-0.91,1.29c-0.54,1.06-0.66,3.49-0.21,4.03
		C459.11,657.98,460.98,652.8,459.54,650.87z"/>
	<path d="M463.63,669.62c-0.79-1.06-1.24-1.32-1.58-0.97c-0.16,0.16,0.14,0.61,0.99,1.45C464.81,671.92,465.15,671.63,463.63,669.62
		z"/>
	<path d="M469.77,615.94c0.39-0.88,0.57-2.6,0.29-2.88c-0.21-0.2-2.72,1.61-3.22,2.31c-0.59,0.82-0.77,1.74-0.45,2.13
		C467.14,618.39,469.06,617.51,469.77,615.94z"/>
	<path d="M467.26,585.36c-0.3-1.18-0.27-1.4,0.47-2.17c0.77-0.82,0.84-1.18,0.25-1.18c-0.66,0-1.13-0.23-1.04-0.54
		c0.04-0.14,0.2-0.72,0.34-1.29c0.18-0.68,0.43-1.13,0.75-1.27c0.27-0.12,0.91-0.54,1.45-0.93c0.79-0.57,0.91-0.77,0.7-1.02
		c-0.16-0.2-0.66-0.32-1.2-0.32c-1.22,0-1.47-0.3-1.47-1.68v-1.15l1.36-0.66c2.54-1.2,3.37-2.54,2.1-3.37
		c-0.54-0.36-0.66-0.36-1.95,0c-2.1,0.59-4.05,1.61-4.5,2.35c-0.47,0.81-0.48,1.95-0.02,3.83c0.29,1.16,0.32,2.17,0.21,4.93
		c-0.13,3.01-0.09,3.67,0.29,5.03c0.43,1.59,1.88,5.7,2.15,6.15c0.09,0.12,0.25,0.25,0.38,0.25
		C467.78,592.31,467.57,586.54,467.26,585.36z"/>
	<path d="M396.76,657.26c-0.79,0.75-1.36,1.11-1.97,1.2c-1.68,0.29-2.49,0.82-4.51,3.05c-1.9,2.08-4.1,5.37-4.41,6.59
		c-0.07,0.3-0.07,0.72,0,0.9c0.14,0.41,0.5,0.34,3.49-0.61c2.78-0.9,3.37-1.22,5.41-2.9c0.95-0.79,2.42-1.97,3.28-2.65
		c2.71-2.15,3.69-3.96,3.17-5.84C400.75,655.22,398.74,655.33,396.76,657.26z"/>
	<path d="M454.96,506.09c0-1.85-0.05-2.24-0.32-2.24c-0.2,0-0.34,0.07-0.34,0.18c0,0.09-0.48,0.75-1.09,1.47
		c-0.59,0.7-1.59,2.26-2.22,3.48c-0.91,1.74-1.22,2.6-1.49,4.17c-0.34,2.13-0.68,3.28-1.18,4.05c-0.16,0.27-1.61,1.68-3.22,3.13
		c-1.95,1.79-3.19,3.1-3.73,4.01c-0.47,0.73-1.33,1.79-1.92,2.35c-2.87,2.63-3.98,7.68-3.21,14.44c0.61,5.37,0.7,9.03,0.27,10.5
		c-0.64,2.24-2.08,4.39-5.32,8.02c-2.15,2.38-2.42,2.67-3.89,4l-0.86,0.77l0.64-0.9c0.36-0.48,0.79-1.04,0.97-1.2
		c0.72-0.73,2.26-3.35,2.47-4.17c0.75-2.96,1.18-6.95,0.72-6.79c-0.16,0.05-0.54,0.75-0.82,1.54c-0.82,2.2-1.86,4.16-2.63,4.96
		c-1.77,1.86-4.59,4.25-4.82,4.1c-0.11-0.05-0.3-0.72-0.47-1.47c-0.21-1.04-0.23-1.72-0.05-2.87c0.14-0.82,0.36-2.2,0.48-3.06
		c0.34-2.44,2.2-5.93,4.35-8.17c2.81-2.94,3.42-4.57,4.07-10.75c0.39-3.92,0.41-4.93,0.07-5.75c-0.23-0.59-0.27-0.54-0.56,1.06
		c-0.45,2.52-1.59,5.91-2.74,8.13c-0.77,1.49-1.4,2.33-2.54,3.4c-1.61,1.54-3.78,2.79-4.82,2.79c-0.56,0-2.58-0.81-6.56-2.63
		c-0.79-0.36-2.4-1.02-3.58-1.47c-1.16-0.47-2.49-1.13-2.96-1.5c-0.77-0.64-3.44-3.89-5.39-6.56c-0.47-0.65-0.97-1.16-1.11-1.16
		c-0.73,0,0.27,4.19,1.58,6.61c1.27,2.31,2.44,3.49,4.71,4.75c0.91,0.5,1.95,1.15,2.31,1.47c1.72,1.43,3.21,6.16,4.34,13.74
		c1.13,7.56,1.15,7.63,2.53,9.31c0.41,0.54,0.72,1.09,0.66,1.24c-0.14,0.38-2.33,1.06-3.33,1.06c-1.33,0-3.06-0.65-6.77-2.54
		c-2.56-1.29-3.94-2.15-4.85-2.99c-0.7-0.64-1.36-1.18-1.47-1.18c-0.2,0-1.02-1.33-2.26-3.58c-1.38-2.53-3.26-7.86-3.76-10.75
		c-0.39-2.22-0.45-7.88-0.09-10.05c0.7-4.48,1.36-8.56,1.56-9.64c0.34-1.93,0.25-3.65-0.38-7.04c-0.64-3.55-0.63-4.96,0.16-8.08
		c1.65-6.72,6.86-15.3,14.08-23.18c2.28-2.49,2.67-3.08,2.13-3.3c-0.5-0.18-1.16,0.16-2.65,1.36c-0.68,0.57-1.29,1.04-1.34,1.04
		c-0.04,0-0.14-0.64-0.2-1.42c-0.16-1.76-1.25-5.02-2.51-7.52c-0.54-1.06-1.16-2.47-1.38-3.13c-0.36-1.13-0.36-1.29-0.02-2.79
		c0.45-1.92,0.47-2.58,0.07-4.07c-0.36-1.34-0.57-1.79-1.77-3.64c-1.02-1.56-1.67-1.88-1.38-0.66c0.22,0.95,0.22,6.32,0,8.37
		c-0.18,1.49-0.13,1.76,0.75,4.5c1.04,3.28,1.06,3.8,0.05,5.89c-0.57,1.18-0.63,1.22-1.63,1.34c-1.47,0.16-3.56,1.63-3.56,2.49
		c0,0.45-1.4,1.59-3.74,3.06c-1.09,0.68-1.72,1.25-2.1,1.9c-0.48,0.88-0.52,1.13-0.45,4.28c0.02,1.85,0.09,3.42,0.16,3.51
		c0.05,0.09,0.2,1.41,0.3,2.92c0.13,1.52,0.52,4.37,0.9,6.34c0.52,2.72,0.68,4.23,0.68,6.23c0,2.74,0.13,3.55,1.04,6.49
		c0.57,1.92,0.68,3.69,0.25,4.23c-0.2,0.25-0.79,0.39-1.81,0.47c-1.34,0.11-1.58,0.07-1.95-0.34c-0.66-0.72-0.75-1.79-0.34-3.76
		c0.52-2.37,0.36-2.9-1.31-4.66c-1.7-1.79-2.96-2.7-3.65-2.7c-1.27,0-2.28,1.15-2.97,3.42c-0.21,0.68-0.36,0.84-0.73,0.79
		c-0.68-0.11-1.29-1.13-2.13-3.56c-0.39-1.17-1.11-2.87-1.56-3.78c-0.75-1.52-1-1.81-2.6-2.92c-1.34-0.95-1.85-1.45-2.17-2.17
		c-0.25-0.61-0.75-1.18-1.34-1.58c-1.74-1.17-2.44-1.88-3.03-3.08c-0.59-1.2-0.59-1.22-0.21-2.51c0.21-0.7,0.63-1.76,0.91-2.35
		c0.3-0.59,0.54-1.41,0.54-1.86c0-0.64-0.09-0.81-0.56-0.91c-0.73-0.2-1.47,0.31-2.36,1.61c-1,1.45-1.11,2.65-0.34,4.1
		c0.32,0.61,0.57,1.42,0.57,1.79c0,1,1.06,3.42,1.92,4.44c0.88,1,1.22,1.81,1.22,2.72c0,0.36,0.21,1.11,0.45,1.68
		c0.25,0.56,0.59,1.95,0.79,3.1c0.18,1.13,0.48,2.81,0.7,3.74c0.2,0.91,0.47,2.13,0.57,2.69c0.13,0.54,0.23,1.95,0.27,3.13
		c0.04,1.43,0.18,2.33,0.41,2.81c0.54,0.99,3.67,3.33,5.09,3.8c1.36,0.45,3.21,1.83,3.83,2.85c0.52,0.86,0.59,2.81,0.13,4.1
		c-0.16,0.48-0.63,1.38-1,1.99c-0.72,1.11-0.72,1.15-0.68,3.92c0.02,1.54-0.07,3.26-0.21,3.82c-0.38,1.54-0.3,2.87,0.18,3.65
		c1.02,1.63,6.41,5.68,6.91,5.2c0.07-0.07,0.02-0.57-0.11-1.09c-0.14-0.52-0.2-1.25-0.14-1.65c0.11-0.68-0.66-4.41-1.43-6.9
		c-0.2-0.63-0.73-1.9-1.22-2.85c-0.47-0.95-0.86-1.9-0.86-2.1c0-0.2,0.3-0.72,0.66-1.18c0.36-0.45,0.79-1.31,0.95-1.92
		c0.16-0.59,0.41-1.13,0.57-1.2c0.29-0.11,1.45,0.34,3.76,1.43c0.63,0.29,1.31,0.54,1.49,0.54c0.29,0,0.36,0.65,0.48,4.08
		c0.21,6.9,1.4,10.23,5.45,15.49c4.42,5.75,7.97,8.92,15.75,14.08c1.29,0.84,2.13,1.59,2.62,2.33c0.39,0.57,1.38,1.7,2.19,2.49
		c0.95,0.91,1.97,2.26,2.87,3.76c0.75,1.29,1.85,2.76,2.4,3.28c2.72,2.49,4.85,4.34,5.54,4.82l0.77,0.52l-0.14,1.61
		c-0.34,3.58-0.7,5-1.74,6.81c-2.49,4.32-3.51,6.95-3.51,9.05c-0.02,1.07-0.34,1.25-0.82,0.48c-0.97-1.59-1.54-2.36-2.87-3.83
		c-0.79-0.86-1.49-1.86-1.54-2.2c-0.07-0.36-0.39-2.35-0.72-4.44c-0.95-6.2-0.97-6.25-2.08-7.9c-0.56-0.82-1.4-1.97-1.86-2.51
		c-0.57-0.68-1.02-1.61-1.42-2.83c-0.32-1.02-0.79-2.01-1.07-2.26c-0.29-0.25-1.7-1.09-3.19-1.86c-2.04-1.06-2.81-1.34-3.3-1.25
		c-1.07,0.21-1.65-0.16-1.97-1.31c-0.16-0.59-1.13-2.26-2.24-3.89c-2.04-2.96-2.83-3.89-3.87-4.51c-1.06-0.66-2.38-2.01-2.83-2.87
		c-0.23-0.47-0.7-1.74-1.04-2.85c-0.75-2.38-1.99-3.99-2.99-3.87c-0.52,0.05-0.57,0.14-0.56,1c0.02,0.72,0.23,1.25,0.84,2.15
		c0.45,0.66,0.82,1.25,0.82,1.33c0,0.54,2.02,4.23,2.81,5.11c1.13,1.27,1.34,1.95,1.63,5.1c0.18,1.85,0.32,2.47,0.73,3.05
		c1.92,2.71,3.87,5.7,4.96,7.63c0.7,1.24,1.86,2.88,2.62,3.69c2.83,3.06,3.85,5.34,4.14,9.14c0.07,0.95,0.29,2.74,0.48,3.96
		c0.81,5.36,0.97,6.02,1.74,7.29c1.52,2.47,1.52,2.51,1.74,6.7c0.14,2.49,0.32,4.19,0.52,4.64c0.27,0.59,2.35,3.62,3.03,4.39
		c0.07,0.09,0.79,0.29,1.58,0.43c1.68,0.29,3.15,0.88,4.21,1.68c0.41,0.3,1.63,1,2.69,1.54c1.07,0.54,2.15,0.99,2.4,0.99
		c0.3,0,0.91-0.5,1.68-1.4c0.66-0.75,1.77-1.95,2.45-2.63c0.68-0.68,1.59-1.7,2.01-2.28c0.43-0.57,1.25-1.59,1.85-2.26
		c0.59-0.68,1.63-2.28,2.33-3.55l1.27-2.33l-0.27-1.81c-0.54-3.85-0.16-6.45,1.86-12.38c0.91-2.65,0.97-3.28,0.38-5.05
		c-0.38-1.15-0.39-1.36-0.11-1.88c0.57-1.07,0.23-3.81-1.25-10.21c-0.47-1.97-0.68-3.49-0.68-4.73c0-1.68,0.07-1.95,0.97-3.82
		c0.54-1.11,1.15-2.76,1.34-3.69c0.52-2.29,0.95-2.88,3.1-4.35c4.59-3.08,7.04-4.86,7.4-5.32c0.57-0.77,0.64-1.49,0.75-9.8
		c0.05-4.25,0.2-8.19,0.32-8.72c0.54-2.4,0.72-3.98,0.57-5.37c-0.29-2.78-0.25-3.03,1.09-5.66c1.02-2.02,1.24-2.62,1.13-3.17
		c-0.25-1.18-1.79-3.49-2.33-3.49c-0.11,0-0.14,0.66-0.07,1.47c0.11,1.34,0.05,1.58-0.72,3.13c-0.45,0.91-0.95,1.67-1.09,1.67
		c-0.14,0-0.84-0.52-1.56-1.15c-1.15-1-1.29-1.22-1.29-2.01c0-0.99,1.16-3.12,3.1-5.62c0.68-0.91,1.27-1.97,1.47-2.69
		c0.45-1.58,1.04-7.58,0.79-8.04c-0.27-0.52,0.14-1.81,1.27-4.05C454.96,508.37,454.96,508.31,454.96,506.09z"/>
	<path d="M396.97,590.12c0-0.13-0.54-0.84-1.2-1.58c-0.66-0.75-1.77-2.06-2.47-2.94c-0.7-0.88-1.63-1.86-2.08-2.2
		c-0.45-0.34-1.4-1.15-2.1-1.77c-0.7-0.64-1.76-1.36-2.33-1.61c-1.59-0.72-2.22-1.25-2.56-2.2c-0.18-0.47-0.82-1.47-1.47-2.22
		c-0.63-0.75-1.54-1.93-2.02-2.63c-0.5-0.7-1.02-1.25-1.15-1.25c-0.54-0.02-0.77,4.89-0.32,6.47c0.14,0.56,0.56,1.41,0.9,1.92
		c0.34,0.5,1.2,2.08,1.9,3.53c1.29,2.6,1.92,3.35,3.33,3.99c0.84,0.39,1.24,1.61,1.2,3.69c-0.04,2.11,0.56,3.6,1.7,4.33
		c0.88,0.56,2.04,0.59,3.58,0.11c1.58-0.5,1.86-0.79,1.56-1.59c-0.13-0.34-0.3-1.04-0.38-1.56c-0.07-0.52-0.34-1.29-0.59-1.72
		l-0.45-0.79l2.47,0.13C396.11,590.3,396.97,590.27,396.97,590.12z"/>
	<path d="M377.68,357.55c-0.18,0.09-0.04,0.34,0.39,0.68c0.66,0.54,1,0.57,1.15,0.12C379.33,358.03,378,357.34,377.68,357.55z"/>
	<path d="M434.72,628.14c-0.07,0.43-0.32,1.09-0.56,1.49c-0.43,0.7-0.63,0.77-3.49,1.31c-0.25,0.05-0.7,0.5-0.97,0.99
		c-0.27,0.48-0.95,1.29-1.5,1.77c-0.75,0.66-0.99,1.04-0.99,1.52c0,0.91,0.36,1.2,1.54,1.2c0.57,0.02,1.27,0.16,1.59,0.34
		c0.72,0.41,1.34,0.41,1.93,0c0.56-0.39,1.54-2.01,1.99-3.3c0.18-0.5,0.72-1.54,1.18-2.29c0.91-1.45,1.38-2.92,1.38-4.34v-0.88
		l-0.9,0.23C435,626.43,434.98,626.47,434.72,628.14z"/>
	<path d="M445.34,577.53c0-0.29-0.14-0.47-0.39-0.47c-0.21,0-0.59-0.16-0.82-0.34c-0.59-0.45-1.56-0.41-1.95,0.07
		c-0.47,0.54-1.09,2.88-1.07,4.1c0,1.13,0.86,3.17,1.49,3.53c1.18,0.7,2.26,0.04,3.13-1.93c0.7-1.58,0.73-3.01,0.11-3.87
		C445.55,578.28,445.34,577.78,445.34,577.53z"/>
	<path d="M404.19,521.33c-2.92,0.36-3.85,0.13-4.57-1.18c-1.02-1.83-1.42-1.22-1.36,2.13c0.07,3.49,0.41,3.94,4.71,6.07
		c1.86,0.93,2.63,1.43,2.92,1.92c0.2,0.38,0.45,0.66,0.52,0.66c0.09,0,0.23-0.47,0.3-1.06c0.09-0.59,0.34-1.43,0.56-1.88
		c0.56-1.07,0.72-5.54,0.23-6.11C406.88,521.14,406.43,521.07,404.19,521.33z"/>
	<path d="M496.52,613.02c0.99-0.41,0.99-0.79,0-0.79c-1.06,0-1.47,0.2-1.47,0.7C495.05,613.43,495.46,613.47,496.52,613.02z"/>
	<path d="M497,615.36c-2.08,0-4.16,1.76-3.3,2.79c0.61,0.73,2.47,0.04,3.74-1.4C498.51,615.61,498.42,615.36,497,615.36z"/>
	<path d="M500.55,578.28c-0.75-0.48-1.95-0.09-2.72,0.88c-0.57,0.73-1.76,3.26-2.71,5.75c-0.3,0.81-0.79,1.97-1.09,2.6
		c-0.77,1.65-1.06,3.13-0.88,4.64c0.18,1.79-0.3,3.24-2.1,6.18c-2.54,4.19-2.9,4.82-3.05,5.34c-0.2,0.63,0.07,0.64,1.29,0.02
		c2.04-1.04,4.66-2.94,5.43-3.96c0.45-0.57,1.25-2.01,1.81-3.17c0.56-1.16,1.4-2.88,1.88-3.8c0.75-1.49,1.61-4,2.24-6.5
		c0.11-0.43,0.21-1.36,0.21-2.08c0-0.72,0.11-1.99,0.25-2.85C501.43,579.52,501.28,578.77,500.55,578.28z"/>
	<path d="M496.73,620.08c-0.5,0.23-1.15,0.43-1.45,0.43c-1.49,0.04-4.48,2.1-5.07,3.51c-0.61,1.43-1.22,4.85-1.43,8.04
		c-0.23,3.19-0.18,3.94,0.29,4.51c0.59,0.75,1.15-0.02,2.06-2.76c1.4-4.25,2.26-6.14,5.05-11.05c0.52-0.93,1.09-1.86,1.27-2.06
		c0.18-0.21,0.29-0.54,0.25-0.72C497.63,619.7,497.5,619.7,496.73,620.08z"/>
	<path d="M535.55,728.24c-0.36-0.5-0.52-1.18-0.68-2.85c-0.3-3.1-0.47-3.57-1.9-5.34l-1.25-1.58l0.14-10.41
		c0.16-11.61,0.41-17.39,0.93-21.8c0.48-4.01,0.13-8.72-1.16-15.07c-1.86-9.23-2.13-10.98-2.74-18.22
		c-0.21-2.54-0.25-2.65-1.11-4.48l-0.59-1.24l0.07-8.85c0.04-4.85,0.16-9.69,0.27-10.75c0.13-1.04,0.22-3.74,0.22-6.02
		c0-2.27,0.11-5.55,0.25-7.27c0.27-3.44,0.07-5.55-0.72-7.63c-0.38-0.97-0.43-1.74-0.43-5.37c0-2.67,0.13-5.05,0.34-6.4
		c1.15-7.2,1.11-6.74,0.81-10.01c-0.29-3.1-0.97-9.12-1.36-12.04c-0.11-0.86-0.27-2.06-0.34-2.69c-0.45-3.53-1.4-7.52-2.15-8.97
		c-0.23-0.47-0.43-1.08-0.43-1.33c0-0.57-0.91-2.04-2.38-3.8c-0.61-0.75-1.5-1.95-1.97-2.69c-2.62-4.1-3.4-5.11-6.05-7.74
		c-2.97-2.94-4.3-4.66-4.62-6c-0.11-0.5-0.09-2.02,0.07-3.85c0.36-4.17-0.07-7.18-1.93-13.65c-0.88-3.06-1.18-3.6-3.48-6.04
		c-0.86-0.93-1.58-1.86-1.58-2.1c0-0.23,0.16-1.04,0.36-1.79c0.56-2.11,0.29-3.33-1.65-7.54c-1.09-2.37-3.15-4.28-6.07-5.64
		c-1.61-0.75-1.58-1.02,0.16-1.22c1.47-0.18,1.85-0.47,2.02-1.54c0.11-0.61,0.3-0.97,0.66-1.13c1.45-0.73,2.27-2.42,2.27-4.66
		c0-1.04,0.07-1.2,1.22-2.38c1.59-1.68,1.79-2.42,1.61-6.14l-0.13-2.9l0.72-1.13c0.64-1,0.73-1.33,0.81-3.1
		c0.11-3.03-0.68-4.48-3.6-6.63c-2.85-2.08-3.28-2.47-3.91-3.55l-0.59-0.99l0.21-3.65c0.2-3.53,0.22-3.69,0.97-5.18
		c0.43-0.86,1.27-2.02,1.85-2.6c0.82-0.79,1.07-1.18,1.07-1.74c0-0.59-0.16-0.79-1.04-1.31c-0.57-0.34-1.65-0.99-2.42-1.45
		c-4.75-2.9-4.37-2.72-4.8-2.33c-0.23,0.2-0.66,0.36-0.99,0.36c-0.5,0-0.63-0.14-0.93-1.06c-0.18-0.59-0.39-1.43-0.48-1.9
		c-0.18-1.04-1.18-2.72-3.21-5.41c-1.88-2.47-2.26-3.22-2.28-4.32c0-0.47-0.3-2.11-0.7-3.65l-0.7-2.79l-0.16-9.53
		c-0.16-9.3-0.27-10.93-1.15-16c-0.99-5.86-0.95-7.42,0.43-15.8c1.07-6.57,1.16-7.51,1.16-11.45c0-3.73-0.09-4.42-0.95-8.02
		c-0.63-2.62-1.09-3.76-2.65-6.36c-1.45-2.45-3.3-4.53-6.7-7.54c-1.16-1.04-2.19-1.93-2.24-2.01c-0.05-0.05-0.7-0.61-1.42-1.22
		c-0.72-0.59-1.43-1.36-1.61-1.7c-0.18-0.32-0.77-2.38-1.34-4.57c-1.18-4.62-1.36-5.16-2.69-8.33c-0.56-1.31-0.99-2.4-0.95-2.44
		c0.04-0.04,0.45-0.36,0.91-0.73c0.84-0.66,0.9-0.68,2.69-0.56c1.59,0.11,1.97,0.07,2.76-0.34c0.84-0.43,1.4-0.97,2.74-2.72
		c0.29-0.38,1.2-1.04,2.02-1.45c1.99-1,3.53-2.2,5.95-4.68c1.38-1.4,2.74-2.49,4.26-3.44c2.44-1.52,3.15-1.68,4.75-1.09
		c4.82,1.81,4.5,1.74,5.19,1.38c0.79-0.41,1.13-1.27,1.45-3.71l0.25-1.9l0.7-0.07c0.38-0.04,1.36,0.09,2.19,0.29
		c2.35,0.54,3.35,0.47,4.23-0.32c0.41-0.36,1.15-0.81,1.65-1.02c0.61-0.23,1.06-0.61,1.33-1.09c0.36-0.7,0.38-0.82,0.04-1.85
		c-0.57-1.81-0.66-2.65-0.38-4.01c0.36-1.79,1.2-2.63,2.4-2.45c0.47,0.09,1.33,0.36,1.9,0.61c0.93,0.41,1.15,0.45,1.61,0.18
		c0.82-0.43,1.09-1.41,0.66-2.42c-0.18-0.47-0.57-1.07-0.86-1.4c-0.29-0.3-0.59-0.79-0.68-1.06c-0.07-0.29-0.54-0.97-1.02-1.52
		c-0.75-0.86-0.88-1.18-0.88-2.02c0-1.47-0.48-2.37-1.83-3.48c-0.66-0.54-1.68-1.47-2.27-2.06c-1.02-1.02-1.27-1.45-3.17-5.61
		c-2.28-4.98-2.94-6.18-4.19-7.7c-0.73-0.9-1.65-2.26-2.02-3.01c-1.5-3.12-5.05-5.71-10.93-8.03c-0.68-0.25-1.74-0.75-2.35-1.09
		c-2.35-1.29-3.71-1.58-8.51-1.83c-4.19-0.23-4.6-0.22-6.38,0.2c-1.4,0.32-2.69,0.45-4.82,0.45c-3.28,0-4.19,0.18-7.65,1.59
		c-2.51,1-2.7,1.04-4.6,0.64c-2.47-0.52-4.76,0.66-6.43,3.3c-0.54,0.84-1.2,1.59-1.61,1.81c-0.39,0.2-1.67,0.45-2.88,0.56
		c-1.18,0.09-2.45,0.3-2.81,0.45c-1.36,0.56-1.81,0.77-2.67,1.34c-0.5,0.32-1.5,0.9-2.24,1.27c-1.61,0.81-2.01,1.22-2.45,2.51
		c-0.47,1.29-0.43,2.74,0.09,4.96c0.38,1.58,0.41,2.08,0.21,3.37c-0.29,1.77,0.11,3.67,1,5.05c0.3,0.47,0.63,1.15,0.72,1.52
		c0.25,1.06,0.9,2.22,1.88,3.37c0.82,0.95,0.91,1.15,0.86,2.08c-0.07,0.97-0.13,1.04-0.86,1.22c-0.43,0.11-1.16,0.3-1.65,0.45
		c-0.64,0.18-1.18,0.18-2.24-0.05c-0.75-0.16-2.51-0.36-3.87-0.43c-1.38-0.07-2.6-0.21-2.69-0.32c-0.11-0.11-0.25-1.51-0.34-3.13
		c-0.38-7.47-2.9-13.08-8.42-18.61c-2.92-2.94-4.75-4.26-8.67-6.29c-1.85-0.95-3.85-2.1-4.44-2.54c-1.36-1.02-4.32-4.71-4.98-6.2
		c-0.43-0.95-1.52-4.48-2.36-7.59c-0.66-2.45-2.13-5.46-4.32-8.85c-1.4-2.15-2.17-3.62-2.76-5.27c-0.75-2.1,0.27-7.83,1.86-10.57
		c1.95-3.35,3.85-7.88,4.82-11.48c0.5-1.93,1.45-8.87,1.77-12.99c0.47-6.34,1.22-10.66,2.4-13.99c0.66-1.86,0.81-2.06,1.74-2.45
		c1.54-0.65,1.85-2.96,0.66-4.98c-0.72-1.22-1.65-1.7-3.28-1.72c-0.82-0.02-1.22-0.11-1.15-0.29c0.11-0.3,1.06-0.75,1.59-0.75
		c0.23,0,0.63-0.39,0.93-0.95c1.18-2.11,4.26-5.86,4.42-5.37c0.04,0.12-0.73,1.4-1.72,2.85c-2.42,3.51-2.42,4.17,0,1.79
		c1-0.99,2.53-2.61,3.37-3.64c1.47-1.74,2.19-2.2,2.54-1.63c0.07,0.11-0.72,1.31-1.74,2.63c-3.3,4.3-4.03,5.41-3.89,5.95
		c0.57,2.27,1.15,4.19,1.25,4.17c0.07,0,1.42-1.77,3.01-3.92c2.49-3.39,2.96-3.91,3.37-3.78c2.62,0.81,5.91-0.11,7.49-2.1
		c0.5-0.63,1.07-1,2.31-1.49c2.1-0.81,2.78-1.29,3.31-2.35c0.29-0.57,0.64-0.9,1.06-1c0.63-0.16,1.95-1.06,2.49-1.68
		c0.48-0.57,1.38-2.67,1.38-3.22c0-0.63,0.43-1.04,1.93-1.79c1.5-0.75,2.49-1.76,3.17-3.24c0.84-1.83,0.47-3.33-1.42-5.8
		c-0.45-0.57-0.7-1.11-0.61-1.27c1.02-1.65,5.95-8.63,6.09-8.63c0.09,0,0.82,0.3,1.63,0.66c2.08,0.93,4.69,1.2,6.65,0.66
		c1.34-0.36,1.59-0.56,3.26-2.26c7.65-7.94,20.73-22.46,20.73-23.05c0-0.07-0.84-0.2-1.86-0.27c-2.45-0.2-3.76-0.57-5.97-1.72
		c-2.31-1.2-4.87-3.57-6.32-5.82c-1.83-2.87-1.5-2.65-2.9-1.81c-0.66,0.41-2.67,1.76-4.44,2.99c-1.77,1.24-3.44,2.29-3.69,2.36
		l-0.47,0.11l0.45-0.52c0.25-0.29,2.35-2.02,4.66-3.85c3.12-2.51,4.19-3.48,4.19-3.83c0-0.81-0.25-1.51-0.54-1.51
		c-0.14,0-1.36,0.77-2.72,1.72c-1.34,0.95-4.57,3.13-7.15,4.87c-2.6,1.76-6.54,4.46-8.78,6.02c-3.91,2.72-4.69,3.19-4.5,2.56
		c0.11-0.32,3.48-3.12,6.11-5.09c0.99-0.73,5.23-3.9,9.42-7.04l7.65-5.68l0.11-1.43c0.05-0.77,0.07-1.45,0.04-1.49
		c-0.13-0.16-10.57,7.09-21.25,14.74c-3.91,2.79-6.02,4.46-6.43,5.05c-1.11,1.58-1.59,3.67-1.59,6.7c0.02,1.77,0.14,3.15,0.38,4.03
		c0.48,1.81,1.72,4.26,2.85,5.68l0.93,1.17l-0.99,1.16c-0.56,0.65-1.68,2.08-2.54,3.19c-0.84,1.11-1.86,2.44-2.29,2.96l-0.73,0.95
		l-1.29-0.57c-1.77-0.82-3.6-1.43-4.25-1.43c-1.79,0-2.79,0.73-5.54,3.92c-1.9,2.24-3.21,3.33-5.77,4.84
		c-1.11,0.66-2.44,1.54-2.94,1.95c-2.15,1.77-9.49,10.01-10.26,11.5c-0.7,1.32-10.28,15.73-13.02,19.56
		c-2.06,2.9-4.94,6.72-10.35,13.76c-4.19,5.48-6.36,8.9-7.09,11.2c-0.18,0.56-0.72,2.58-1.16,4.48c-0.88,3.65-1.47,5.05-3.56,8.51
		c-1.38,2.26-2.06,3.91-2.38,5.68c-0.27,1.47-0.13,2.72,0.93,8.06c0.88,4.39,1.43,8.17,2.1,14.15c0.3,2.7,0.61,5.37,0.68,5.93
		c0.05,0.56,0.27,2.37,0.47,4.03c0.48,4.32,1.59,8.65,3.26,12.86c1.42,3.57,5.46,11.09,8.37,15.6c1.7,2.63,2.06,3.08,4.01,5.12
		c2.56,2.69,4.71,5.28,5.39,6.52c0.64,1.16,0.66,1.31,0.63,3.82c-0.04,3.39-0.23,3.74-3.94,7.45c-1.59,1.61-3.3,3.53-3.78,4.25
		c-0.77,1.2-1.97,4.35-1.97,5.19c0,0.73-1.18,2.58-2.65,4.14c-1.95,2.1-4.03,4.71-5.28,6.66c-3.06,4.73-3.94,8.04-4.62,17.5
		c-0.11,1.54-0.3,3.13-0.43,3.57c-0.23,0.79-0.79,3.85-1.15,6.23c-0.11,0.79-0.66,2.76-1.22,4.39c-1.43,4.25-1.61,5.03-1.88,8.53
		c-0.2,2.38-0.5,4.05-1.24,6.95c-1.33,5.12-2.13,9.42-2.13,11.25c0,2.63,1.29,9.23,2.38,12.27c1.43,3.96,1.63,5.21,1.61,10.34
		c-0.02,2.6,0.04,4.84,0.11,4.94c0.25,0.41,1.04,7.08,1.27,10.91c0.18,2.92,0.18,4.93,0,7.27c-0.47,6.02-0.54,12.22-0.21,15.46
		c0.38,3.65,0.38,6.63,0,9.17c-0.3,2.1-0.18,11.59,0.2,14.46c0.13,0.86,0.32,2.61,0.47,3.9c0.41,3.98,0.68,5.84,1.16,8.28
		c0.41,2.13,0.45,2.92,0.34,9.62c-0.09,7.17,0,8.99,0.72,12.79c1.29,7.02,1.63,12.47,0.99,16.03c-0.25,1.45-0.36,3.62-0.39,7.92
		c-0.04,3.73-0.14,6.36-0.32,7.06c-0.14,0.63-0.52,2.33-0.82,3.82c-0.3,1.47-0.91,4.05-1.34,5.7c-1.24,4.73-1.56,7.08-1.24,9.23
		l0.27,1.79l-0.95,1.59c-1.06,1.76-1.29,3.05-1.31,7.09c-0.02,2.88-0.38,5.88-0.9,7.51c-0.25,0.73-0.54,1.9-0.66,2.58
		c-0.29,1.56-0.3,11.72-0.02,12.75c0.11,0.45,0.57,2.2,1.04,3.92c0.72,2.67,0.84,3.48,0.82,5.37c0,2.15-0.29,3.64-1.11,6.15
		c-0.2,0.56-0.43,2.02-0.54,3.26c-0.59,6.43-1.29,11.23-2.36,16.3c-1.24,5.77-1.67,6.72-3.83,8.6c-0.82,0.72-2.53,2.26-3.76,3.44
		c-1.24,1.18-3.1,2.94-4.14,3.92c-2.76,2.58-5.84,5.95-6.54,7.17c-0.7,1.25-1.42,3.33-2.9,8.58c-1.25,4.42-1.22,4.32-3.46,7.74
		c-0.93,1.42-1.92,3.15-2.2,3.87c-1.11,2.72-1.43,6.72-1.59,18.99c-0.13,11.32-0.47,21.16-0.81,23.5c-0.11,0.86-0.63,2.78-1.13,4.26
		c-0.97,2.87-1.11,4.17-0.73,6.72c0.2,1.24,0.27,1.36,1,1.72c0.99,0.48,5.36,1.33,7.83,1.52c1.58,0.13,2.31,0.32,4.37,1.2
		c3.64,1.59,11.39,4.71,13.67,5.52c3.17,1.11,3.26,1.13,15.33,1.79c2.31,0.13,5.23,0.45,7.17,0.79c1.77,0.32,3.78,0.68,4.42,0.81
		c1.67,0.29,8.38,2.04,11.57,2.99c1.49,0.45,4.16,1.25,5.95,1.79c1.77,0.54,5.11,1.54,7.38,2.24c6.5,1.97,9.85,2.76,14.67,3.48
		c2.45,0.38,5.79,0.93,7.38,1.25c1.61,0.32,4.12,0.82,5.61,1.09v0.02c1.47,0.27,3.33,0.52,4.14,0.52c1.38,0.02,2.17-0.07,6.05-0.68
		c2.15-0.34,4.75-1.45,14.99-6.39c3.78-1.83,6.02-2.74,10.98-4.42c3.6-1.24,5.59-2.08,11.93-5.02c2.85-1.33,5.54-2.56,5.98-2.72
		c0.95-0.39,7.17-0.39,11.29,0c3.64,0.34,8.33-0.07,13.67-1.22c0.9-0.2,3.89-0.43,6.9-0.56c6.14-0.25,7.72-0.39,16.52-1.58
		c4.5-0.61,9.14-0.52,10.75,0.2c1.13,0.52,2.02,0.3,2.42-0.54C536.5,729.94,536.3,729.26,535.55,728.24z M437.89,141.28
		c4.68-3.19,14.98-10.39,18.63-13.02c2.15-1.56,3.96-2.78,4.01-2.7c0.14,0.12-0.54,0.84-7.25,7.7c-2.71,2.78-5.88,6.06-7.04,7.29
		c-1.18,1.22-2.49,2.61-2.96,3.06c-0.73,0.77-0.93,0.84-1.95,0.84c-0.73,0-1.13-0.09-1.13-0.27c0-0.14,1.2-1.49,2.69-2.97
		c2.33-2.36,3.03-3.24,2.56-3.24c-0.07,0-1.83,1.38-3.94,3.06l-3.82,3.06l-1-0.5c-0.56-0.27-0.99-0.57-0.93-0.7
		C435.79,142.78,436.76,142.05,437.89,141.28z M495.71,467.24c0.16,0.18,1,0.81,1.88,1.36c2.13,1.4,3.91,3.13,4.17,4.12
		c0.13,0.43,0.21,1.34,0.21,2.02c0,1.02-0.13,1.45-0.81,2.53c-0.75,1.24-0.79,1.41-0.73,2.92c0.27,5.91-0.05,6.79-2.31,6.18
		c-0.97-0.25-4.59-0.14-5.82,0.2c-0.56,0.14-0.57,0.2-0.32,0.7c0.14,0.32,0.63,0.66,1.16,0.84c0.99,0.32,1.7,0.7,3.3,1.7
		c0.97,0.63,1.07,0.77,1.07,1.52c0,1.29-0.41,1.58-2.69,1.95c-1.09,0.18-1.54,0.72-0.59,0.72c0.32,0,0.59,0.09,0.59,0.21
		c0,0.38-0.91,0.72-2.35,0.91c-0.73,0.11-2.06,0.3-2.92,0.43c-2.51,0.38-2.88,0.41-3.55,0.22c-0.36-0.09-0.77-0.13-0.93-0.07
		c-0.73,0.29-5.64-2.63-6.83-4.05c-0.39-0.47,0.61-0.04,4.08,1.72c2.4,1.22,2.76,1.34,4.14,1.36c1.68,0.02,3.24-0.32,4.75-1.02
		l0.99-0.47l-0.88-0.3c-0.48-0.16-1.93-0.41-3.22-0.54c-1.99-0.2-2.69-0.38-4.37-1.13c-1.11-0.5-2.65-1.15-3.44-1.45
		c-1.68-0.64-4.46-3.12-4.21-3.76c0.13-0.32,0.36-0.23,1.54,0.64c3.19,2.33,3.83,2.58,7.11,2.58c1.16,0.02,2.99,0.11,4.03,0.22
		c1.04,0.12,2.51,0.14,3.24,0.05l1.34-0.14l-0.79-0.5c-0.45-0.27-1.36-0.61-2.02-0.75c-0.66-0.14-1.49-0.45-1.81-0.68
		c-0.32-0.23-0.81-0.41-1.06-0.41s-0.5-0.09-0.57-0.22c-0.07-0.11-0.81-0.3-1.63-0.47c-1.18-0.2-1.88-0.5-3.08-1.33
		c-0.86-0.57-2.06-1.29-2.65-1.59c-1.29-0.66-3.4-2.49-3.82-3.31c-0.38-0.75-0.59-2.11-0.39-2.45c0.11-0.16,1.11,0.23,3.06,1.22
		c5.61,2.81,6.86,3.17,10.01,2.76c1.13-0.14,2.85-0.5,3.82-0.81c0.97-0.3,2.15-0.63,2.65-0.72c1.86-0.32,0.95-0.59-2.38-0.72
		c-3.12-0.12-3.46-0.18-4.71-0.79c-0.84-0.41-1.36-0.82-1.42-1.09c-0.13-0.66-1.13-2.13-1.45-2.13c-0.14,0-0.39,0.3-0.54,0.7
		c-0.23,0.61-0.34,0.68-0.9,0.56c-0.34-0.07-1.61-0.64-2.81-1.27c-1.54-0.81-2.33-1.36-2.63-1.85c-0.23-0.38-0.38-0.75-0.32-0.84
		c0.05-0.09,0.56-0.21,1.11-0.27c0.68-0.07,1.65-0.5,2.94-1.27c1.81-1.07,1.97-1.13,2.33-0.79c0.88,0.77,2.44,1.04,6.05,1
		c3.48-0.04,5.82-0.38,5.98-0.86c0.05-0.14-0.38-0.57-0.93-0.98c-0.57-0.39-1.04-0.79-1.04-0.86c0-0.36,0.7-1.77,0.88-1.77
		C495.35,466.91,495.57,467.06,495.71,467.24z M487.95,499.05c-0.02,0.11-0.16,1.76-0.32,3.62c-0.18,2.2-0.36,3.42-0.52,3.42
		c-0.21,0-0.99-3.48-1.4-6.31c-0.11-0.81-0.09-0.84,0.66-0.99C487.29,498.64,488.01,498.75,487.95,499.05z M477.3,470.33l0.13-1.15
		c0.13-1.06,1.02-3.06,2.6-5.75c1.25-2.15,2.88-3.69,3.89-3.69c0.36,0,0.39,0.25,0.39,2.42c0,3.3-0.77,5.25-1.24,3.12
		c-0.2-0.86-0.57-1.5-0.9-1.5c-0.13,0-0.25,0.72-0.27,1.65c-0.09,2.2-0.45,3.19-1.45,4.01c-0.61,0.48-1.15,0.7-1.99,0.77
		L477.3,470.33z M486,467.54c0.34-0.81,0.41-1.74,0.48-5.5c0.07-3.67,0.16-4.53,0.39-4.53c0.54,0,0.77,0.79,1.13,3.62
		c0.18,1.51,0.39,2.78,0.45,2.83c0.27,0.29,0.39-0.38,0.5-2.47c0.11-2.42,0.32-3.06,0.86-2.62c0.23,0.2,0.3,1.08,0.3,3.83
		c0,3.8-0.36,6.07-1.06,6.61c-0.45,0.34-0.54,0.32-1.92-0.04C485.63,468.87,485.5,468.69,486,467.54z M491.02,446.98
		c0.5,0,1.61,0.5,3.46,1.58c1.49,0.86,2.81,1.56,2.94,1.56s0.45,0.16,0.73,0.36l0.52,0.36l-1.13,0.77
		c-0.63,0.41-1.24,0.75-1.38,0.75c-0.13,0-1.22,0.39-2.42,0.88c-2.85,1.15-2.99,1.18-3.51,0.84c-0.25-0.18-0.91-0.48-1.49-0.7
		c-0.57-0.22-1.72-0.93-2.54-1.6c-0.84-0.66-1.74-1.34-1.99-1.52c-0.45-0.3-0.39-0.34,0.99-0.99
		C489.44,447.33,490.36,446.98,491.02,446.98z M473.57,319.09c-0.48,0.72-1.7,2.92-2.72,4.93c-1.22,2.36-2.11,3.85-2.6,4.3
		c-0.63,0.54-0.97,0.64-1.85,0.64c-1.22,0-1.34-0.11-3.37-2.9c-1.33-1.81-2.02-3.1-2.02-3.74c0-0.77,1.04-1.18,3.01-1.18
		c0.93,0,1.88-0.09,2.1-0.21c0.2-0.11,0.56-0.25,0.77-0.32c0.45-0.14,0.54-0.57,0.11-0.57c-0.14,0-0.68-0.2-1.16-0.45
		c-0.5-0.23-1.07-0.48-1.31-0.56c-0.97-0.29,0.04-0.57,2.06-0.57c2.63,0,3.91-0.38,4.93-1.47c0.86-0.9,1.49-1.11,2.33-0.79
		C474.75,316.53,474.66,317.5,473.57,319.09z M474.41,312.78c-1.4,0.68-1.79,0.61-3.3-0.54c-1.45-1.09-2.69-2.85-3.42-4.91
		c-0.41-1.15-1.33-1.76-3.55-2.33c-2.79-0.73-3.35-0.79-3.35-0.36c0,0.21,0.45,0.57,1.16,0.9c1.49,0.66,3.42,2.24,3.76,3.06
		c0.14,0.36,0.81,1.11,1.47,1.67c1,0.86,1.2,1.16,1.2,1.76c0,0.86-0.45,1.79-0.9,1.88c-0.59,0.12-2.19-1.24-3.44-2.92
		c-1.07-1.43-2.81-3.33-2.81-3.04c0,0.05,0.29,0.81,0.64,1.67c0.79,1.86,1.76,3.08,2.94,3.69c0.48,0.25,0.9,0.56,0.9,0.66
		c0,0.7-2.15-0.56-3.85-2.24c-1.06-1.06-1.27-1.41-1.47-2.47c-0.14-0.66-0.2-1.68-0.13-2.24c0.09-0.77,0-1.25-0.34-1.92
		c-0.45-0.9-0.73-3.35-0.43-3.82c0.09-0.14,0.66-0.39,1.29-0.56c1.2-0.3,1.36-0.5,0.66-0.88c-0.57-0.29-0.56-0.66,0.02-1.72
		c0.64-1.17,1.5-2.04,2.53-2.56l0.86-0.45l1.9,0.61c1.04,0.34,1.93,0.7,1.99,0.79c0.2,0.34-1.02,2.65-2.13,4.03
		c-0.91,1.13-1.13,1.56-1.13,2.24c0,0.99,0.84,1.95,2.53,2.94c0.81,0.47,1.34,1.06,2.26,2.49c1.54,2.37,3.42,3.92,4.44,3.65
		C475.38,311.71,475.13,312.44,474.41,312.78z M482.76,307.11c-2.65,2.85-3.48,3.89-3.87,4.8c-0.72,1.68-0.86,1.95-1.27,2.2
		c-1.27,0.81-2.94,0.34-1.7-0.47c0.32-0.22,0.84-0.81,1.18-1.33c1.29-2.04,5.25-6.18,5.89-6.18
		C483.55,306.14,483.51,306.3,482.76,307.11z M431.97,289.41c-0.21-0.36-0.72-1.07-1.13-1.61c-0.84-1.15-0.95-1.7-0.29-1.49
		c0.39,0.13,0.45,0.04,0.45-0.64c0-1,0.3-1.18,1.06-0.59c0.57,0.47,0.63,0.47,0.9,0.09c0.39-0.54,0.36-1.65-0.09-2.13
		c-0.27-0.3-0.41-1.09-0.56-2.79c-0.11-1.31-0.23-2.44-0.29-2.49c-0.29-0.29-0.84,0.61-1.29,2.04l-0.48,1.59l-0.29-0.9
		c-0.29-0.95-0.39-3.85-0.16-4.48c0.23-0.63,4.08-3.01,5.77-3.58c0.88-0.29,2.6-0.7,3.83-0.91c2.74-0.45,3.22-0.68,4.37-2.17
		c1.85-2.4,2.99-3.31,4.19-3.33c0.34,0,1.43,0.07,2.42,0.16c1.42,0.12,2.08,0.07,3.13-0.23c1.07-0.32,1.77-0.36,3.69-0.23
		c1.29,0.07,2.72,0.25,3.21,0.38c0.47,0.11,0.91,0.18,0.97,0.12c0.05-0.05-0.16-0.41-0.48-0.79c-0.66-0.79-0.7-0.93-0.16-0.93
		c1.25,0,6.05,1.86,6.45,2.51c0.16,0.25,0.99,0.21,0.99-0.05c0-0.29-0.97-2.13-1.47-2.83c-0.34-0.47-0.32-0.5,0.48-0.75
		c0.61-0.2,2.06-0.25,5.11-0.18c3.64,0.11,4.5,0.2,5.73,0.63c0.81,0.27,1.56,0.57,1.68,0.66c0.13,0.11,2.38,1.27,5.03,2.6
		c4.28,2.15,4.96,2.58,6.18,3.8c1.29,1.31,2.11,2.53,2.11,3.12c0,0.31-2.67,0.2-2.99-0.09c-0.11-0.11,0.13-0.32,0.5-0.48
		c0.91-0.41,0.88-0.64-0.13-0.64c-1.31,0-3.76,1.41-4.35,2.51c-0.48,0.9-0.13,1,3.44,0.99c3.67-0.02,5.19,0.25,5.98,1.09
		c0.52,0.56,1.86,3.08,2.22,4.19c0.14,0.45,0.77,1.67,1.4,2.69c0.61,1.02,1.43,2.45,1.79,3.19c1.02,1.99,2.29,3.6,3.64,4.59
		c1.22,0.91,1.93,2.01,1.93,3.03c0,0.72-0.47,0.75-1.49,0.11c-0.61-0.38-1.04-0.43-2.6-0.38l-1.86,0.05l1.33,0.52
		c0.82,0.32,1.81,0.95,2.6,1.68c0.99,0.91,1.61,1.27,2.88,1.68c1.74,0.56,2.49,1.11,2.49,1.81c0,0.39-0.13,0.43-1.65,0.3
		c-2.79-0.22-4.37,0.48-5.16,2.29c-0.05,0.12-0.29,0.02-0.52-0.23c-0.57-0.66-1.76-1.45-2.15-1.45c-0.48,0-1.02-0.95-0.9-1.61
		c0.07-0.34-0.05-0.82-0.29-1.2c-0.45-0.66-2.79-1.88-3.64-1.88c-0.27,0-1.16,0.39-1.97,0.88c-0.81,0.48-1.59,0.93-1.72,0.99
		c-0.45,0.18,0.34,0.59,1.16,0.59c0.41,0,1.45,0.16,2.29,0.38c1.25,0.3,1.52,0.45,1.42,0.73c-0.36,0.84-0.32,1.11,0.14,1.56
		c0.36,0.32,0.81,0.47,1.47,0.47c1.25,0,2.45,0.99,2.69,2.2c0.18,1.06,0.38,1.43,1.56,3.03c0.54,0.72,0.99,1.5,0.99,1.74
		c0,0.47-0.75,1.24-1.93,1.99c-0.72,0.47-1.04,0.45-3.55-0.2c-0.5-0.14-1.42-0.25-2.06-0.25c-1.68,0-1.88-0.13-1.59-0.91
		c0.13-0.38,0.18-0.99,0.13-1.38c-0.05-0.38-0.02-1.09,0.09-1.58c0.13-0.57,0.13-1.15-0.04-1.65c-0.27-0.77-1.72-2.1-2.31-2.1
		c-0.3,0-0.29,0.14,0.07,1.16c0.48,1.38,0.38,1.77-0.43,1.7c-1.09-0.09-1.22,0.23-0.45,1.18c0.48,0.61,0.64,1,0.54,1.33
		c-0.11,0.32,0.05,0.68,0.56,1.25c0.38,0.43,0.7,0.81,0.7,0.82c0.02,0.03,0.07,0.99,0.13,2.13c0.11,2.35-0.09,3.1-0.57,2.19
		c-0.18-0.31-0.64-0.72-1.04-0.9c-0.41-0.2-0.97-0.66-1.22-1.02c-0.52-0.73-0.9-0.7-0.9,0.05c0,0.25-0.16,0.66-0.38,0.88
		c-0.34,0.38-0.34,0.45,0,0.82c0.21,0.22,0.38,0.47,0.38,0.56c0,0.18-0.14,0.16-1.06-0.12c-1-0.32-1.27-1.31-0.7-2.4
		c0.23-0.43,0.41-0.95,0.41-1.17c0-0.61,0.32-0.64,1.11-0.12c0.41,0.27,0.93,0.61,1.15,0.73c0.21,0.12,0.54,0.36,0.73,0.52
		c0.57,0.47,0.45-0.02-0.41-1.83c-1.36-2.85-2.13-3.65-5.48-5.64c-1.85-1.11-2.83-1.83-2.6-1.88c0.41-0.07,3.62,1,4.1,1.38
		c0.2,0.14,0.27,0.12,0.27-0.11c0-0.31-0.54-0.64-2.9-1.84c-1.88-0.95-4.37-1.97-5.23-2.13c-0.81-0.18-1.49-0.72-1.06-0.86
		c0.2-0.07,4.19,0.7,5.71,1.11c0.48,0.12,1.34,0.3,1.9,0.41c1.07,0.18,2.97,0.72,3.65,1c0.3,0.13,0.36,0.09,0.27-0.16
		c-0.23-0.63-3.96-1.99-7.72-2.85c-2.47-0.56-5.21-1.36-5.09-1.47c0.11-0.12,6.75,0.32,8.22,0.56c1.31,0.2,1.67,0.13,1.13-0.23
		c-0.72-0.45-4.55-1.33-5.93-1.33c-1.79-0.02-4.41-0.63-4.96-1.15c-0.75-0.72-0.66-1.04,0.43-1.33c0.52-0.14,1.07-0.3,1.24-0.36
		c0.54-0.14,0.16-0.61-0.99-1.18c-0.88-0.45-1.43-0.57-2.78-0.57h-1.68l-0.47-1.49c-0.93-2.87-1.09-3.78-0.81-4.19
		c0.66-0.95,1.81-3.06,1.7-3.15c-0.18-0.18-3.76,3.58-4.12,4.32c-0.41,0.86-1.58,1.22-2.85,0.91c-0.82-0.21-0.84-0.23-1.45-2.29
		c-0.7-2.36-1.58-4.14-2.38-4.76c-0.7-0.54-0.75-0.48-0.48,0.48c0.25,0.86,0.27,2.81,0.04,3.4c-0.14,0.38-0.25,0.34-1.13-0.29
		c-1.15-0.82-1.59-0.79-0.91,0.07c0.27,0.34,0.77,1.22,1.13,1.93c0.57,1.2,2.24,2.88,3.13,3.19c0.18,0.05,0.21,0.45,0.11,1.25
		c-0.14,1.02-0.23,1.16-0.7,1.16c-0.72,0-0.88,0.38-0.32,0.72c0.93,0.59,0.57,1.06-1.42,1.85c-0.47,0.18-1.04,0.57-1.25,0.84
		c-0.39,0.47-0.47,0.48-1.85,0.23c-0.77-0.14-1.92-0.25-2.54-0.23c-1.13,0.04-3.4-0.41-3.8-0.75c-0.29-0.27-1.24-0.23-1.24,0.04
		c0,0.29,3.21,2.83,3.8,3.03c0.86,0.27,0.22,0.61-0.86,0.45c-1.29-0.18-3.12-1-4.55-2.04c-1.25-0.9-1.77-0.91-1.09-0.05
		c0.81,1.02,0.56,1.11-0.99,0.39c-0.86-0.41-1.22-0.81-2.49-2.87c-0.82-1.31-1.68-2.65-1.9-2.97c-0.52-0.75-0.79-1.76-0.47-1.76
		c0.13,0,0.52,0.38,0.84,0.84c0.77,1.04,3.26,3.64,3.49,3.64c0.34,0,0.18-1.02-0.3-1.79c-0.27-0.43-0.75-1.45-1.09-2.28
		c-0.32-0.82-0.9-1.88-1.27-2.36c-0.9-1.13-1.47-2.29-2.1-4.26c-0.48-1.49-0.5-1.72-0.23-3.06c0.16-0.79,0.43-1.83,0.59-2.29
		c0.16-0.47,0.23-0.95,0.16-1.06c-0.18-0.3-0.9,0.7-1.85,2.63l-0.86,1.74l-0.61-0.91c-0.34-0.5-0.73-0.88-0.86-0.84
		c-0.39,0.12-0.79,1.5-0.79,2.81c-0.02,1.06-0.13,1.33-0.79,2.06c-0.75,0.84-1.47,2.65-1.47,3.73c0,0.3,0.14,0.9,0.34,1.34
		c0.45,1.06,0.43,1.2-0.18,1.18C433.62,290.89,432.46,290.16,431.97,289.41z M435.61,295.35c0.2-0.32,2.1,0.43,2.83,1.11
		c0.41,0.38,0.99,0.88,1.31,1.13c0.66,0.56,0.45,0.56-0.95,0.07C437.67,297.27,435.43,295.64,435.61,295.35z M434.3,293.01
		c-1.54-0.79-1.9-1.22-1-1.2c1.13,0,3.08,1.22,3.08,1.92C436.38,293.94,435.72,293.71,434.3,293.01z M436.72,288.55
		c0-1.13,0.45-2.56,0.81-2.56c0.11,0,0.16,1.31,0.14,2.9c-0.02,1.59-0.09,2.92-0.18,2.92C437.22,291.81,436.72,289.71,436.72,288.55
		z M385.43,227.35c-0.56,1.18-1,2.24-1,2.38c0,0.39-0.39,0.5-0.54,0.13c-0.07-0.2-0.2-0.9-0.27-1.54c-0.14-1.15-0.09-1.29,0.93-3.03
		c0.59-0.99,1.15-1.86,1.25-1.92c0.09-0.07,0.23,0.16,0.32,0.5c0.07,0.36,0.18,0.79,0.23,0.98
		C386.4,225.06,385.99,226.17,385.43,227.35z M398.62,161.68c-1.04,0.82-1.09,0.5-0.09-0.54c0.54-0.56,1.02-0.97,1.07-0.91
		C399.77,160.39,399.21,161.22,398.62,161.68z M407.9,169.76c-0.81-1.24-2.42-2.24-3.64-2.24c-0.38-0.02-0.93-0.16-1.24-0.36
		c-0.54-0.3-0.45-0.32,1.22-0.25c2.88,0.14,4.73,1.31,4.87,3.1C409.21,171.12,408.72,171.02,407.9,169.76z M434.32,135.26
		c0.11,0.32-2.22,4.19-5.73,9.53c-1.54,2.33-3.01,4.68-3.28,5.2c-0.25,0.54-0.52,0.97-0.57,0.95c-0.32-0.04-1.56-1.02-1.56-1.24
		c0-0.14,0.16-0.39,0.36-0.57c0.59-0.48,2.47-2.92,5.34-6.9C432.57,137.09,434.23,134.96,434.32,135.26z M423.5,143.32
		c1.36-1.56,3.33-3.94,4.37-5.3c1.04-1.36,1.93-2.38,1.97-2.28c0.05,0.11-1.24,2.29-2.87,4.86c-1.63,2.56-3.42,5.45-3.99,6.43
		c-0.57,0.99-1.2,1.81-1.38,1.85c-0.29,0.04-1.31-0.5-1.72-0.9C419.7,147.78,420.55,146.71,423.5,143.32z M411.43,146.81
		c1.54-0.73,1.59-0.7,8.87,4.16c2.88,1.92,5.71,3.76,6.29,4.1c2.13,1.22,2.85,3.48,1.74,5.46c-0.52,0.91-1.68,1.97-1.86,1.67
		c-0.05-0.09-0.14-0.77-0.18-1.5c-0.07-1.27-0.05-1.34,0.43-1.38c0.27,0,0.57-0.09,0.64-0.16c0.25-0.25-0.61-1.25-1.56-1.86
		c-0.52-0.32-2.11-1.43-3.55-2.45c-1.42-1.04-2.65-1.86-2.74-1.86c-0.07,0-0.57-0.34-1.11-0.75c-0.54-0.41-1.47-0.88-2.08-1.04
		c-2.94-0.77-3.96-1.13-4.23-1.49c-0.2-0.29-0.56-0.39-1.15-0.38c-0.48,0.02-0.95-0.09-1.02-0.23
		C409.65,148.68,410.66,147.19,411.43,146.81z M403.69,161.7c-0.48-0.25-0.9-0.5-0.9-0.54c0-0.05,0.36-0.52,0.79-1.04
		c0.43-0.5,0.84-1.18,0.91-1.49c0.16-0.57,1.92-1.83,3.64-2.56c0.93-0.41,0.97-0.45,0.63-0.82c-0.32-0.38-0.32-0.47,0.2-1.24
		c0.32-0.45,0.7-0.82,0.84-0.82c0.16,0,0.63-0.2,1.06-0.41c0.43-0.23,1.11-0.5,1.5-0.59c0.39-0.07,0.79-0.25,0.86-0.36
		c0.25-0.41,0.77-0.2,2.13,0.91c0.79,0.63,1.72,1.18,2.17,1.25c0.66,0.13,2.53,1.33,4.16,2.69c0.23,0.18,0.88,1.33,1.43,2.51
		c0.97,2.02,1.02,2.29,0.99,3.8c-0.02,0.88-0.2,1.99-0.39,2.45c-1.09,2.67-1.52,2.97-1.72,1.24c-0.11-0.99-0.05-1.11,0.64-1.76
		c1.38-1.27,0.79-2.87-1.49-4.01c-0.59-0.3-1.15-0.66-1.22-0.81c-0.09-0.13-0.63-0.47-1.2-0.73c-0.57-0.27-1.54-0.82-2.15-1.22
		c-0.61-0.39-1.18-0.7-1.27-0.7c-0.41,0-0.14,0.61,0.52,1.24c0.38,0.36,1.43,1.54,2.35,2.63c1.92,2.28,1.95,2.46,1.22,6
		c-0.61,2.9-0.93,3.78-1.61,4.28c-0.68,0.5-1.2,0.36-0.88-0.23c0.11-0.21,0.3-1.09,0.45-1.97c0.39-2.4,0.32-2.53-2.97-4.16
		c-1-0.5-2.31-1.25-2.9-1.67c-1.88-1.34-2.01-0.93-0.32,1.04c1.99,2.35,2.38,2.97,2.72,4.35c0.79,3.03,0.29,4.98-1.54,6.06
		c-1.52,0.9-1.7,0.77-1.79-1.2c-0.14-3.06-0.39-4.16-1.25-5.64c-1.72-2.94-3.58-3.78-7.76-3.46c-1.76,0.12-2.08,0.09-2.08-0.18
		c0-0.18,0.13-0.45,0.3-0.59c0.45-0.38,3.49-1.34,4.23-1.36C404.84,162.6,404.73,162.24,403.69,161.7z M400.34,156.58
		c0.48-0.27,0.9-0.41,0.9-0.29c0,0.47-2.31,2.96-4.6,4.98c-2.81,2.47-3.24,2.81-3.24,2.49C393.39,163.19,399.1,157.28,400.34,156.58
		z M394.8,186.51c0.48,0.54,0.47,0.66-0.11,1.97c-1.42,3.17-2.44,8.53-2.76,14.42c-0.07,1.29-0.23,3.1-0.34,4.03
		c-0.13,0.93-0.32,2.58-0.45,3.69c-0.39,3.37-0.66,4.57-1.74,7.79c-0.99,2.96-1.4,3.69-1.4,2.53c0-0.31-0.11-0.82-0.23-1.18
		c-0.25-0.64-0.48-5.16-0.52-10.25c-0.02-2.54,0.09-3.48,0.84-7.27c0.9-4.62,1.04-5.03,3.33-10.53
		C393.85,185.88,394.02,185.65,394.8,186.51z M364.19,204.3c0.25-0.41,1.72-2.31,3.26-4.26c7.2-9.05,15.87-21.55,20.82-29.99
		c0.66-1.15,1.29-2.08,1.4-2.08c0.11,0,0.13,0.38,0.05,0.84c-0.09,0.47-0.25,2.1-0.34,3.64c-0.16,2.42-1.06,7.51-1.83,10.41
		c-0.27,0.97-3.28,7.15-3.91,8.01l-0.38,0.5l0.11-0.66c0.11-0.65,0.34-2.17,0.82-5.59c0.21-1.56,0.07-2.13-0.52-2.13
		c-0.14,0-0.61,0.57-1.02,1.27c-0.43,0.72-1.18,1.85-1.7,2.53c-0.5,0.68-1.47,1.99-2.15,2.92c-0.68,0.91-1.65,2.24-2.15,2.92
		c-0.97,1.33-4.71,5.05-8.46,8.42c-1.24,1.11-2.45,2.26-2.69,2.52c-0.25,0.29-0.75,0.72-1.13,0.99l-0.66,0.48L364.19,204.3z
		 M368.52,240.88c0,0.25-0.2,0.64-0.43,0.88c-0.57,0.52-0.57,0.18,0-0.68C368.47,240.5,368.52,240.47,368.52,240.88z M372.68,280.76
		c-0.68-0.77-1.93-2.72-2.79-4.3c-0.52-0.99-1.16-2.11-1.4-2.51c-0.63-1.06-2.81-7.04-3.89-10.69c-1.47-5.03-2.2-8.49-2.54-12.11
		c-0.21-2.2-0.2-2.65,0.18-4.14c0.25-0.91,0.59-2.02,0.79-2.45c0.32-0.75,0.34-0.66,0.36,2.47c0,4.14,0.54,7.56,1.92,12.54
		c1.18,4.19,1.5,5.28,2.28,7.79c0.97,3.1,2.24,6.34,4.07,10.32C372.93,280.43,373.24,281.4,372.68,280.76z M376.01,288.28
		c0.22-0.22,1.07,0.7,2.35,2.51c0.64,0.93,1.04,1.67,0.88,1.67C378.57,292.4,375.65,288.64,376.01,288.28z M379.58,304.22
		c-0.86-1.88-1.13-3.24-0.68-3.24c0.36,0,3.12,2.31,4.62,3.89l1,1.04l-0.38,0.79c-0.21,0.45-0.9,2.13-1.52,3.76
		c-1.36,3.51-1.72,4.32-2.27,5.14c-0.75,1.09-0.91,0.77-0.75-1.47c0.09-1.13,0.27-2.97,0.39-4.08
		C380.4,306.6,380.35,305.96,379.58,304.22z M367.65,331.97c0.81-1.4,1.59-2.06,3.46-2.88c1.5-0.66,2.36-1.4,3.85-3.31
		c0.54-0.7,1.09-1.27,1.2-1.27c0.41,0,0.2,0.98-0.54,2.56c-0.84,1.76-1.56,2.56-2.99,3.31c-0.5,0.27-1.88,1.07-3.03,1.79
		c-1.97,1.2-2.63,1.49-2.63,1.15C366.97,333.22,367.27,332.63,367.65,331.97z M357.35,342.43c0.63-2.35,1.43-4.37,2.4-5.97
		c1.83-3.01,5.79-7.94,6.38-7.94c0.36,0-0.07,2.26-0.63,3.39c-0.29,0.57-0.72,1.93-0.97,3.03c-0.45,2.04-0.82,3.46-1.54,5.79
		c-0.38,1.24-0.54,1.45-2.19,2.74c-0.99,0.79-2.26,1.81-2.83,2.31c-0.59,0.48-1.13,0.88-1.22,0.88
		C356.52,346.66,356.84,344.37,357.35,342.43z M518.26,714.12c-0.05,0-0.16-0.34-0.21-0.73c-0.07-0.39-0.32-1.88-0.59-3.3
		c-0.27-1.43-0.57-3.49-0.7-4.6c-0.99-9.01-1.07-12.24-0.54-17.57c0.18-1.79,0.43-5.7,0.59-8.67c0.14-2.99,0.32-5.43,0.41-5.43
		c0.09,0,0.22,2.08,0.3,4.64c0.09,2.56,0.25,7.17,0.36,10.25c0.11,3.08,0.27,10.05,0.34,15.49
		C518.3,709.66,518.32,714.12,518.26,714.12z M533.35,726.81c-0.3,0.09-0.45,0.3-0.45,0.66c0,0.61-0.23,0.64-1.68,0.25l-1.02-0.27
		l0.14-2.29c0.14-2.02,0.09-2.56-0.43-4.59c-0.84-3.39-1.04-5.16-1.38-12.61c-0.18-3.71-0.36-6.88-0.43-7.06
		c-0.23-0.64-0.79-6.88-1.06-11.59c-0.18-3.21-0.36-4.75-0.52-4.69c-0.38,0.12-0.39,1.95-0.11,10.57
		c0.34,10.07,0.48,17.05,0.36,16.91c-0.07-0.07-0.23-1.47-0.38-3.13c-0.13-1.67-0.39-4.23-0.59-5.71c-0.18-1.47-0.41-3.89-0.54-5.37
		c-0.2-2.67-0.36-4.26-0.97-10.75c-0.18-1.84-0.39-4.46-0.47-5.82c-0.18-3.13-0.52-6.74-0.91-9.73c-0.16-1.31-0.61-4.68-0.99-7.51
		c-0.91-6.97-1.11-8.55-1.36-11.43c-0.52-5.98-0.66-8.02-0.79-10.96c-0.05-1.72-0.21-4.1-0.32-5.27c-0.13-1.16-0.32-3.99-0.45-6.27
		c-0.14-2.28-0.34-4.94-0.45-5.93c-0.5-4.17-1.34-15.82-1.34-18.68c0-0.57-0.07-0.72-0.25-0.54c-0.27,0.27-0.34,23.18-0.07,23.61
		c0.2,0.32,0.5,32.76,0.32,33.62l-0.16,0.72l-0.14-0.77c-0.41-2.37-0.61-4.41-0.82-8.85c-0.23-5.11-0.72-11.64-1.13-15.33
		c-0.13-1.2-0.2-5.7-0.16-10.19c0.04-5.5-0.04-8.85-0.23-10.53c-0.16-1.34-0.43-3.98-0.63-5.82c-0.2-1.85-0.5-4.51-0.68-5.93
		c-0.77-5.98-0.97-5.34-0.97,3.13c0,5.59-0.07,6.91-0.3,6.82c-0.16-0.07-0.45-0.7-0.64-1.4c-0.2-0.72-0.66-2.31-1.04-3.57
		c-0.86-2.9-1.15-6.21-1.16-12.65c0-4.96-0.21-9.53-0.66-13.61c-0.13-1.18-0.39-3.8-0.57-5.82c-0.2-2.02-0.61-4.95-0.91-6.49
		c-1.07-5.3-1.42-7.74-1.42-10.12c-0.02-2.58-0.2-4.44-0.45-4.44c-0.09,0-0.23,1.74-0.3,3.85c-0.07,2.13-0.25,4.32-0.39,4.87
		c-0.34,1.31-0.38,5.98-0.04,7.85c0.14,0.79,0.36,3.01,0.5,4.93c0.25,3.69,0.45,5.46,1.13,10.3c0.56,3.98,1.11,10.07,1.11,12.32
		c0,1,0.11,2.99,0.23,4.42c0.18,1.99,0.16,4.89-0.11,12.09c-0.38,10.46-0.41,15.78-0.13,19.85c0.77,10.37,0.84,15.85,0.66,46.7
		c-0.11,17.7,0.04,22.73,0.72,28.21c0.14,1.04,0.3,5.25,0.38,9.37c0.14,7.02,0.13,7.47-0.25,7.68c-0.23,0.11-0.7,0.18-1.06,0.14
		l-0.64-0.07l-0.13-6.36c-0.16-7.13-0.25-7.67-1.56-8.2c-0.84-0.36-1.59-0.2-2.97,0.63c-0.56,0.32-1.5,0.47-4.28,0.66
		c-1.97,0.13-3.73,0.18-3.91,0.11c-0.2-0.07-0.38-0.57-0.47-1.27c-0.07-0.63-0.5-2.19-0.95-3.44c-1.13-3.21-1.11-3.06-0.34-4.51
		c0.38-0.72,0.7-1.56,0.7-1.88c0-0.32,0.2-1.49,0.45-2.6c0.25-1.15,0.36-2.08,0.25-2.19c-0.13-0.13-1.15,1.16-2.4,3.01
		c-1.2,1.76-3.44,4.94-4.96,7.08c-2.9,4.05-3.92,5.89-4.44,8.04c-0.48,2.06-0.41,3.1,0.39,4.82c0.66,1.43,0.68,1.61,0.45,2.6
		c-0.13,0.57-0.38,1.63-0.52,2.35c-0.2,0.97-0.39,1.36-0.73,1.51c-0.27,0.11-1.86,0.3-3.56,0.43c-1.7,0.14-3.56,0.41-4.14,0.61
		c-0.57,0.2-3.8,1.7-7.15,3.35c-3.37,1.65-6.23,2.99-6.4,2.99c-0.14,0-0.68-0.48-1.2-1.06c-1.59-1.86-5.05-3.6-8.54-4.3
		c-2.96-0.61-3.74-0.27-5.79,2.47c-0.88,1.16-2.47,2.9-3.55,3.89c-1.07,0.97-2.35,2.28-2.79,2.9c-1.02,1.36-1.81,2.26-1.81,2.08
		c0-0.56,0.91-2.56,2.1-4.59c1.47-2.54,1.86-3.33,2.2-4.42c0.32-1.04,0.84-4.57,0.88-5.93c0.04-1.83,0.23-2.35,0.9-2.35
		c0.38,0,0.52-0.11,0.47-0.34c-0.05-0.18-0.21-0.81-0.38-1.38c-0.25-0.93-0.21-1.32,0.27-3.58c1-4.6,0.93-10.05-0.16-13.56
		c-0.61-1.92-0.57-2.11,0.43-2.69c0.73-0.41,2.35-2.1,3.6-3.71c0.47-0.61,0.68-2.53,0.45-3.81c-0.13-0.64-0.63-2.01-1.11-3.03
		c-0.5-1.02-0.9-1.99-0.9-2.15c0-0.14,0.36-1.13,0.79-2.2c0.48-1.22,0.82-2.51,0.91-3.46c0.2-2.2-0.66-9.98-1.38-12.49
		c-1.07-3.78-1.22-4.39-1.36-5.62c-0.07-0.66-0.02-2.92,0.14-4.98c0.32-4.23,0.38-3.8-1.43-14.26c-1.4-8.08-1.4-8.11-2.17-9.58
		l-0.68-1.31l0.79-0.86c1.09-1.22,1.42-1.92,1.95-4.3c0.54-2.37,0.77-2.88,2.1-4.77c0.54-0.75,1.22-1.86,1.54-2.51
		c0.43-0.88,0.75-1.22,1.31-1.4c0.41-0.14,1.54-0.9,2.53-1.7c0.99-0.81,2.04-1.5,2.35-1.58c0.32-0.07,0.91-0.27,1.34-0.43
		c0.45-0.18,1.27-0.36,1.85-0.41c1.15-0.11,2.45-0.7,3.73-1.7c0.54-0.41,1.16-0.68,1.83-0.75c2.36-0.23,3.44-1.29,4.34-4.32
		c0.3-0.98,0.81-2.49,1.13-3.35c0.32-0.86,0.57-1.74,0.57-1.95c0-0.41-0.54-0.54-0.77-0.18c-0.2,0.32-3.44,2.92-3.65,2.92
		c-0.11,0-0.3-0.59-0.43-1.33c-0.2-1.04-0.2-1.54,0.04-2.29c0.16-0.54,0.41-1.99,0.56-3.22c0.13-1.22,0.5-3.24,0.81-4.46
		c0.86-3.53,0.64-4.46-0.61-2.53c-0.34,0.52-1.16,1.7-1.85,2.63c-0.68,0.93-1.34,2.02-1.49,2.45c-1,3.03-1.67,4.37-3.05,6.11
		c-1.47,1.83-3.87,6.38-4.21,7.94c-0.07,0.39-0.45,1.09-0.81,1.54c-0.36,0.47-0.66,0.95-0.66,1.11c0,0.61-0.99,1.47-2.54,2.2
		c-1.06,0.5-1.9,1.08-2.29,1.59c-0.36,0.45-1.06,1.04-1.56,1.34c-0.5,0.29-1.5,1.13-2.26,1.84c-1.13,1.09-1.45,1.58-2.01,3.06
		c-0.45,1.2-0.95,2.08-1.61,2.79c-0.52,0.57-1.52,1.77-2.2,2.67c-0.72,0.93-1.81,2.01-2.51,2.51c-0.7,0.47-1.58,1.22-1.97,1.65
		c-0.61,0.7-0.84,0.81-1.68,0.81c-0.56,0-1.47-0.23-2.13-0.54c-0.66-0.31-1.56-0.63-2.02-0.7c-1.18-0.21-2.29-0.82-3.1-1.7
		c-0.38-0.41-1.09-1.11-1.59-1.56c-0.48-0.47-1.09-1.06-1.33-1.34c-1-1.24-2.78-2.67-3.3-2.67c-0.7,0-0.79,0.29-0.97,3.01
		c-0.11,1.86-0.07,2.4,0.23,2.97c0.2,0.39,0.52,1.2,0.72,1.79c0.43,1.27,1.27,2.45,1.88,2.63c0.23,0.09,0.81,0.72,1.27,1.42
		c0.45,0.72,1.36,1.86,2.02,2.58c1.16,1.27,1.42,1.72,0.97,1.72s-3.42-2.06-4.34-2.99c-0.52-0.54-1.25-1.13-1.67-1.34l-0.72-0.38
		v0.97c0,1.5,0.39,2.54,1.7,4.57c0.66,1.04,1.22,1.99,1.22,2.1c0,0.39-0.43,0.23-1.2-0.45c-0.43-0.38-0.84-0.68-0.93-0.68
		c-0.11,0-0.11,2.4-0.02,5.32c0.11,3.21,0.05,7.95-0.09,11.93l-0.27,6.61l-0.82,1.77c-0.97,2.11-1.02,3.22-0.29,6.74
		c0.25,1.22,0.56,3.05,0.66,4.03c0.2,1.86-0.04,14.19-0.32,16.07c-0.14,1.02-0.22,1.11-1.24,1.63c-0.66,0.34-1.33,0.9-1.68,1.45
		c-0.81,1.22-1.38,1.32-4.37,0.77c-0.72-0.14-0.91-0.07-1.43,0.43c-0.7,0.7-0.72,0.5,0.54,4.6c0.52,1.67,0.93,3.4,0.93,3.87
		c0,0.63-0.3,1.29-1.2,2.69c-0.66,1.02-1.65,2.72-2.19,3.82c-0.54,1.07-1.07,1.95-1.2,1.95c-0.3,0-2.42-2.9-5.7-7.83
		c-2.96-4.42-4.35-6.38-4.71-6.61c-0.48-0.3-0.18,0.5,1.04,2.67c0.68,1.24,1.7,3.12,2.27,4.16c1.85,3.49,3.67,6.59,4.93,8.37
		l1.22,1.77l-0.39,0.75c-0.57,1.04-2.04,2.61-2.36,2.51c-0.16-0.05-1.09-1.7-2.1-3.67c-2.13-4.17-3.6-6.68-5.89-9.99
		c-1.72-2.53-2.2-3.1-2.54-3.1c-0.38,0-0.21,0.61,0.56,2.28c1.77,3.78,5.73,14.67,5.73,15.75c0,0.79-0.72,0.23-2.06-1.61
		c-0.79-1.08-1.7-2.42-2.06-2.97c-1.85-2.88-3.31-4.25-2.96-2.74c0.38,1.54,1.86,6.2,2.47,7.7c0.11,0.27-0.07,0.52-0.59,0.9
		c-0.41,0.29-2.1,1.72-3.76,3.19c-2.72,2.42-3.3,2.81-5.8,4.01c-1.52,0.73-2.99,1.32-3.24,1.32c-0.25,0-1.5-0.27-2.78-0.57
		c-1.27-0.32-3.13-0.7-4.16-0.82c-1-0.14-2.72-0.38-3.83-0.52l-2.02-0.27l0.07-1.34c0.04-0.91,0.27-1.79,0.75-2.83
		c0.63-1.36,0.68-1.65,0.54-2.81c-0.43-3.58-0.57-4.84-0.81-6.99c-0.38-3.69-0.7-3.8-1.24-0.43c-0.18,1.13-0.43,2.2-0.54,2.42
		c-0.34,0.57-0.27-2.94,0.09-5.25c1.16-7.13,0.99-17.7-0.38-22.11c-0.59-1.95-1.04-2.02-1.85-0.29c-0.84,1.84-1.43,5.18-1.58,8.96
		c-0.18,4.86-0.48,6.82-1.49,9.96c-0.68,2.11-0.99,3.57-1.24,5.82c-0.21,2.17-0.54,3.74-1.11,5.5c-1.27,3.96-1.5,4.35-3.24,5.19
		c-1.07,0.5-1.81,1.08-2.63,2.02l-1.15,1.31l-1.29-0.16c-3.05-0.38-4.96-0.95-8.56-2.54c-4.42-1.99-11.81-4.87-13.4-5.25
		c-0.63-0.16-1.43-0.21-1.79-0.14c-0.41,0.09-1.15-0.02-2.01-0.3c-0.75-0.25-2.4-0.61-3.67-0.81c-3.64-0.52-3.3-0.29-3.15-2.29
		c0.09-1.18,0.41-2.51,0.99-4.14c0.47-1.31,0.97-3.03,1.09-3.8c0.38-2.17,0.66-9.85,0.9-22.8c0.34-18.58,0.39-18.97,4.07-24.25
		c1.74-2.53,2.54-4.44,3.53-8.44c1.47-5.88,2.1-7.22,4.73-10.1c1.93-2.15,6.54-6.54,11.64-11.16c1.81-1.63,2.38-2.44,3.1-4.33
		c1.36-3.66,2.87-12.4,3.6-20.87c0.11-1.38,0.41-3.08,0.66-3.81c0.7-2.01,1.36-5.39,1.36-6.9c0-0.82-0.29-2.4-0.7-3.94
		c-1.99-7.35-1.79-5.98-1.65-12.16c0.13-5.43,0.14-5.59,0.82-7.61c0.66-1.99,0.7-2.22,0.82-7.33l0.14-5.27l1.06-1.77
		c1.13-1.88,1.24-2.49,0.88-4.82c-0.21-1.31,0.02-2.78,0.97-6.5c1.06-4.07,2.01-8.97,2.6-13.31c0.39-3.03,0.45-4.17,0.32-7.4
		c-0.11-2.78-0.07-4.1,0.13-4.93c0.36-1.4,0.34-10.34-0.02-13.09c-0.25-1.77-1.02-6.27-1.59-9.23c-0.18-0.86-0.2-2.4-0.07-4.69
		c0.09-1.9,0.18-5.41,0.18-7.83c0.04-3.57,0.09-4.28,0.3-3.8c2.26,4.93,2.62,5.91,3.1,8.29c0.29,1.43,0.68,3.17,0.88,3.89
		c0.18,0.72,0.34,1.74,0.34,2.28c0,0.54,0.09,1.04,0.2,1.11c0.11,0.05,0.25,0.95,0.34,1.97c0.21,2.42,0.66,5.46,0.84,5.64
		c0.07,0.09,0.2-2.9,0.27-6.65c0.09-3.73,0.23-8.8,0.34-11.25c0.18-4.42,0.2-4.51,1.02-6.72c1.31-3.48,1.68-4.94,1.93-7.74
		c0.32-3.31,0.36-3.42,0.9-2.42c0.47,0.91,0.88,1.29,0.88,0.81c0-0.18-0.21-1.15-0.47-2.17c-0.75-2.97-0.14-3.94,1.04-1.65
		l0.64,1.29l0.07-0.79c0.07-0.84-0.73-4.23-1.61-6.72c-1.18-3.37-2.19-5.95-2.45-6.38c-0.16-0.25-0.41-0.84-0.57-1.34
		c-0.27-0.81-0.59-1.58-2.33-5.59c-0.27-0.61-0.97-1.76-1.58-2.56c-1.36-1.85-1.86-2.99-2.17-5.01c-0.14-0.9-0.45-2.1-0.68-2.69
		c-0.23-0.59-0.41-1.47-0.41-1.95c0-0.57-0.11-0.9-0.29-0.9c-0.5,0-0.84,3.22-0.84,7.85c0,4.8,0.07,5.23,1.36,8.2
		c0.72,1.65,0.93,2.49,1.11,4.26c0.11,1.2,0.27,2.72,0.36,3.37c0.07,0.66,0.05,1.18-0.05,1.18c-0.11-0.02-0.56-0.52-0.97-1.15
		c-1.07-1.58-2.19-2.29-3.24-2.1l-0.82,0.16l0.14-1.31c0.07-0.73,0.23-1.68,0.36-2.13c0.27-0.9,0.16-3.31-0.29-7.26
		c-0.38-3.22-0.38-7.94,0-14.55c0.23-4.16,0.25-6.45,0.07-10.09c-0.13-2.58-0.2-4.73-0.16-4.77c0.05-0.05,0.77,1.38,1.36,2.72
		c0.66,1.56,1.47,5.59,1.9,9.55c0.14,1.29,0.38,2.6,0.52,2.9c0.34,0.75,0.48-14.21,0.16-17.13c-0.2-1.79-0.38-2.31-1.61-4.82
		c-0.75-1.52-1.76-3.85-2.22-5.14c-0.47-1.29-1.24-3.37-1.74-4.59c-0.48-1.24-1.11-3.26-1.38-4.48c-0.29-1.24-0.64-2.79-0.82-3.48
		c-1.02-3.94-1.38-7.54-0.99-10.19c0.34-2.4,1.02-5.68,1.58-7.72c0.84-3.06,1.11-4.57,1.34-7.27c0.36-4.26,0.72-5.8,2.02-8.96
		l0.29-0.68l0.16,0.56c0.09,0.32,0.11,3.08,0.05,6.16c-0.09,4.64-0.2,6.16-0.66,8.85c-0.73,4.17-0.77,7.85-0.11,12.2
		c0.7,4.55,0.75,4.86,1.06,5.61l0.29,0.66l0.16-0.84c0.07-0.45,0.09-0.99,0.02-1.16c-0.07-0.2,0-1.47,0.18-2.87
		c0.16-1.38,0.25-3.1,0.18-3.81c-0.18-2.06,0.7-6.52,1.81-9.17c0.43-1.02,2.11-3.08,2.53-3.08c0.16,0,0.41,0.43,0.56,0.97
		c0.38,1.4,1.77,2.65,3.94,3.48c2.06,0.81,4.03,1.07,8.92,1.27c1.97,0.07,3.82,0.2,4.08,0.27c0.3,0.07,0.77,0.56,1.11,1.13
		c0.54,0.93,0.56,1.08,0.29,1.81c-0.16,0.45-0.82,1.77-1.49,2.96c-0.64,1.16-1.45,2.87-1.76,3.78c-0.3,0.91-0.64,1.76-0.75,1.9
		c-0.11,0.14-0.25,0.56-0.32,0.93c-0.11,0.73-0.9,3.6-1.83,6.7c-1.02,3.39-1.68,3.91-5.2,4.09l-2.44,0.12l-2.33-0.93
		c-1.29-0.52-2.62-1.15-2.96-1.38c-0.32-0.23-1.09-0.66-1.68-0.93c-0.61-0.29-1.47-0.75-1.93-1.04c-0.47-0.29-0.9-0.48-0.95-0.43
		c-0.29,0.27,1.22,5.07,2.15,6.97c0.52,1.04,2.7,3.39,3.56,3.83c0.95,0.5,5.21,1.86,6.32,2.02c1.34,0.18,1.92,0.84,2.83,3.26
		c0.79,2.04,0.82,2.6,0.38,4.69c-0.25,1.18-0.25,1.68-0.04,2.51c0.14,0.57,0.32,1.11,0.41,1.2c0.27,0.27,1.74-2.28,2.65-4.6
		c0.72-1.86,1.83-3.94,2.83-5.36c0.11-0.14,3.73-0.09,4.75,0.09c0.54,0.09,2.1,0.61,3.46,1.17c1.38,0.56,2.99,1.22,3.62,1.45
		c1.31,0.54,2.94,0.97,4.41,1.18c0.84,0.13,1.2,0.32,1.95,1.13c1.04,1.15,1.22,1.67,1.24,3.8l0.02,1.56l-1.45,1.11
		c-2.62,1.97-3.22,2.15-8.01,2.42c-2.31,0.12-5.84,0.14-7.85,0.07c-2.56-0.11-3.96-0.07-4.77,0.13c-1.07,0.25-1.16,0.23-1.68-0.25
		c-0.32-0.29-0.54-0.77-0.54-1.11c0-1.02-0.27-2.01-0.54-1.99c-0.14,0-0.63,0.82-1.09,1.81l-0.84,1.81l-0.95-0.16
		c-0.52-0.09-1.81-0.23-2.85-0.3l-1.92-0.14l-0.47-0.97c-0.64-1.31-1.09-1.74-2.53-2.51c-1.77-0.97-1.9-0.93-1.76,0.57
		c0.2,1.85,0.95,3.21,2.24,4.01c0.59,0.38,1.85,1.18,2.79,1.81c1.9,1.24,3.83,2.11,4.68,2.11c0.3,0,0.61,0.16,0.68,0.34
		c0.07,0.2-0.2,1.29-0.57,2.45c-0.75,2.29-0.82,3.12-0.47,6.23c0.2,1.61,0.18,2.4-0.05,3.62l-0.3,1.58l-0.9-0.07
		c-1.99-0.16-3.53-1.59-4.25-3.99c-0.21-0.73-0.52-1.72-0.66-2.2c-0.16-0.5-0.41-1.5-0.56-2.24c-0.14-0.75-0.34-1.65-0.45-2.02
		c-0.11-0.36-0.25-1.13-0.32-1.68c-0.09-0.54-0.25-1.15-0.36-1.34c-0.14-0.21-0.21,0.99-0.21,3.53c-0.02,6.06,0.63,8.51,2.78,10.68
		c0.99,0.99,1.38,1.22,2.92,1.67c2.54,0.73,2.72,0.82,2.9,1.49c0.18,0.73,1.7,3.21,2.06,3.35c0.2,0.07,0.23-0.34,0.16-1.5
		c-0.05-0.9-0.02-1.76,0.11-1.93c0.18-0.27,0.84-0.27,4.44-0.05c3.26,0.22,4.39,0.22,5,0c0.91-0.3,4.93-3.03,4.93-3.35
		c0-0.13-0.45-0.16-1.11-0.07c-1.33,0.18-1.42-0.04-0.34-0.73c0.43-0.29,0.79-0.63,0.79-0.77c0-0.36-2.88-0.04-4.57,0.52
		c-1.42,0.48-3.53,0.57-5.84,0.29c-1.33-0.18-1.97-0.79-2.49-2.42c-0.2-0.63-0.52-1.4-0.72-1.7c-0.29-0.45-0.32-1.04-0.21-3.37
		c0.11-2.06,0.05-3.24-0.18-4.37c-0.18-0.86-0.32-1.63-0.32-1.72c0-0.25,0.95-0.48,1.74-0.43c0.41,0.04,1.13-0.14,1.63-0.41
		c1.11-0.57,1.47-0.57,2.45-0.02c5.41,3.1,7.81,3.73,10.03,2.6c0.57-0.29,1.56-0.61,2.17-0.7c1.15-0.16,2.65-0.81,2.92-1.24
		c0.2-0.32,3.49-1.81,3.65-1.67c0.16,0.16-0.72,4.44-1.47,7.22c-0.34,1.2-1.22,2.47-3.01,4.32c-0.59,0.61-1.11,1.41-1.27,1.97
		c-0.5,1.67-0.05,1.7,1.97,0.11c0.68-0.52,1.34-0.95,1.49-0.95c0.14-0.02,0.3,0.3,0.39,0.7c0.07,0.38,0.38,1.25,0.68,1.95
		s0.72,1.85,0.91,2.56c0.27,0.91,0.75,1.77,1.7,2.96c1.4,1.77,1.92,2.1,1.65,1.06c-0.07-0.34-0.23-1.09-0.32-1.7
		c-0.21-1.33,0.05-1.5,1.4-0.9c1.49,0.66,5.91,3.67,7.97,5.41c1.88,1.59,3.28,2.31,5.28,2.72c0.5,0.11,2.31,0.48,4.03,0.84
		c5.36,1.13,6.38,1.25,6.86,0.82c0.59-0.54,0.52-0.7-0.32-0.84c-1.42-0.27-5.02-2.45-6.02-3.67c-0.25-0.3-0.18-0.32,0.79-0.18
		c1.47,0.22,1.24-0.07-1.02-1.22c-2.06-1.06-2.63-1.49-2.63-1.97c0-0.21,0.13-0.27,0.39-0.16c3.83,1.56,4.82,1.43,1.58-0.21
		c-3.3-1.65-5.09-2.74-6.05-3.66c-0.7-0.66-1.09-1.4-0.77-1.4c0.05,0,1.18,0.47,2.51,1.02c1.4,0.59,2.69,0.99,3.01,0.95
		c0.54-0.07,0.54-0.11,0.13-0.29c-1.02-0.43-6.75-3.78-7.22-4.21c-0.93-0.82-0.29-0.79,2.15,0.18c2.67,1.06,3.83,1.38,3.83,1.08
		c0-0.13-0.27-0.36-0.61-0.54c-2.33-1.2-7.67-4.35-8.11-4.8c-0.79-0.77-0.45-0.88,1.11-0.32c1.33,0.47,1.76,0.48,1.49,0.05
		c-0.07-0.11-1.42-0.99-3.01-1.93c-2.65-1.59-2.94-1.85-3.37-2.79c-0.27-0.57-0.68-2.29-0.93-3.83c-0.25-1.54-0.63-3.67-0.86-4.73
		c-0.34-1.61-0.38-2.37-0.21-4.69c0.2-3.01,0.36-4.23,0.93-6.49c0.2-0.79,0.41-1.72,0.48-2.06c0.05-0.34,0.2-0.63,0.29-0.63
		c0.11,0,0.7,0.75,1.34,1.67c0.99,1.41,1.34,1.74,2.62,2.38c1.4,0.68,1.58,0.72,3.21,0.59c2.51-0.2,7.17-1.85,9.49-3.37
		c2.22-1.43,3.49-2.9,4.76-5.48c0.86-1.74,2.17-5.45,1.97-5.62c-0.05-0.07-0.3,0.18-0.56,0.56c-1.07,1.54-4.34,4.48-5.89,5.3
		c-3.05,1.58-7.94,2.88-11.07,2.94c-2.51,0.05-3.35-0.29-5.32-2.15c-0.64-0.63-1.22-1.09-1.25-1.04c-0.04,0.05-0.2,0.39-0.38,0.77
		c-0.81,1.65-1.45,2.42-2.72,3.26c-1.06,0.66-1.59,0.88-2.33,0.88c-1.15,0-3.58-0.72-5.25-1.58c-0.68-0.34-2.01-0.84-2.92-1.13
		c-2.54-0.75-3.53-1.36-5.39-3.26c-1.77-1.83-2.13-2.56-3.24-6.45c-0.45-1.56-0.39-4.66,0.11-6.99c0.23-1.09,0.56-3.1,0.7-4.44
		c0.36-3.48,0.72-4.14,2.6-5.02c2.38-1.13,2.35-1.13,4.17,0.25c0.9,0.66,2.24,1.63,2.97,2.13c0.73,0.5,1.92,1.47,2.63,2.15
		c1.06,1,1.68,1.38,3.65,2.13c2.62,1.02,4.1,1.18,5.3,0.56c0.77-0.38,1.5-0.97,1.5-1.18c0-0.07-0.63-0.12-1.4-0.14
		c-0.93,0-1.67-0.14-2.19-0.43c-0.43-0.23-1.49-0.68-2.35-1c-1.56-0.57-1.58-0.59-2.28-2.02c-0.39-0.81-0.9-1.99-1.09-2.65
		c-0.21-0.64-0.52-1.24-0.7-1.31c-0.7-0.27-1.52-2.15-1.68-3.85c-0.13-1.38-0.29-1.85-0.95-2.79c-0.43-0.64-0.88-1.43-1.02-1.77
		c-0.52-1.4-0.13-3.19,1.16-5.18c0.41-0.61,1.13-1.86,1.63-2.79l0.9-1.7l1.29-0.3c1.09-0.27,1.52-0.27,3.06,0.02
		c0.97,0.18,1.9,0.25,2.04,0.16c0.32-0.2-0.23-1.18-1.59-2.83c-0.48-0.59-0.88-1.18-0.88-1.31c0-0.41-1.77-2.1-2.19-2.08
		c-0.54,0.02-3.26-0.79-5.88-1.74c-2.87-1.04-4.76-1.02-2.63,0.02c0.39,0.2,1.25,0.82,1.9,1.4c0.99,0.88,1.25,1.27,1.5,2.28
		c0.18,0.66,0.57,1.47,0.9,1.79c0.3,0.34,0.57,0.7,0.57,0.82c0,0.13-0.79,1.43-1.76,2.9c-0.95,1.47-2.44,3.83-3.28,5.23
		c-0.86,1.41-2.01,3.08-2.58,3.71c-0.56,0.64-1.18,1.47-1.4,1.86c-0.59,1.13-2.96,1.54-4.37,0.77c-1.99-1.08-4.62-2.78-6.75-4.37
		c-1.31-0.97-3.26-2.22-4.35-2.78c-3.22-1.68-3.96-3.26-3.96-8.63c0-1.68-0.09-3.08-0.2-3.08c-0.3,0-1.06,1.9-1.68,4.32
		c-0.47,1.7-0.57,2.65-0.56,4.37c0.02,1.9-0.05,2.38-0.57,3.71c-0.86,2.13-1.97,3.99-2.22,3.74c-0.13-0.12-0.02-1.02,0.27-2.29
		c0.82-3.55,0.99-6.22,0.59-9.05c-0.95-6.72-1.04-8.28-0.64-10.48c0.2-1.13,0.43-2.45,0.52-2.96c0.09-0.56,0.68-1.68,1.47-2.87
		c1.45-2.15,1.77-2.53,3.42-3.83c1.42-1.13,1.99-1.97,2.44-3.53c0.52-1.81,2.28-4.01,4.68-5.82c1.09-0.84,2.11-1.52,2.29-1.52
		c0.16,0,0.7-0.2,1.18-0.45c0.68-0.34,1.04-0.77,1.56-1.77c0.63-1.24,2.19-2.71,2.9-2.71c0.34,0,0.3,0.2-0.29,1.7
		c-0.77,1.92-2.88,5.12-4.62,6.93c-1.5,1.58-4.55,5.82-5.21,7.27c-1.56,3.39-2.87,6.61-2.81,6.91c0.04,0.2,1.16-1.29,2.53-3.33
		c2.81-4.23,3.73-5.25,4.93-5.46c1.86-0.36,3.01,0.29,3.94,2.22c0.52,1.07,1.24,1.93,2.96,3.62c5.75,5.55,10.09,7.68,13.88,6.81
		c1.04-0.23,2.88-1.49,4.21-2.83c0.97-0.98,1.09-1.5,0.23-0.95c-0.39,0.23-0.59,0.22-1.25-0.14c-0.93-0.5-1.25-0.32-0.66,0.34
		c0.41,0.47,0.41,0.48,0,0.79c-0.23,0.18-0.5,0.3-0.59,0.3c-0.09,0-1.15-0.7-2.35-1.58c-3.26-2.37-3.62-2.37-1.43,0
		c0.73,0.79,1.27,1.49,1.22,1.54c-0.13,0.14-1.65-0.86-3.46-2.29c-2.56-2.02-4.75-3.53-4.89-3.37c-0.09,0.07,0.79,1.06,1.93,2.17
		c1.13,1.11,2.01,2.08,1.95,2.15c-0.16,0.14-2.24-1.27-4.03-2.74c-2.99-2.46-4.98-4.41-5.71-5.64c-0.75-1.22-0.79-1.41-0.79-3.21
		c0-1.06,0.14-2.47,0.3-3.13c0.16-0.68,0.54-2.26,0.84-3.51c0.29-1.24,0.68-2.65,0.88-3.13c0.72-1.72,1.45-3.33,1.67-3.65
		c0.93-1.43,6.97-12.15,7.38-13.11c0.21-0.48,0.56-2.02,0.77-3.4c0.38-2.42,0.79-3.83,1.99-6.66c0.3-0.73,0.72-2.15,0.93-3.13
		c0.2-0.99,0.57-2.65,0.84-3.71c0.25-1.04,0.61-2.52,0.79-3.3c0.18-0.77,0.39-1.4,0.48-1.4c0.2,0,0.66,0.75,1.7,2.79
		c0.5,0.99,1.65,2.97,2.53,4.41c0.9,1.43,1.63,2.69,1.63,2.79s0.2,0.45,0.45,0.75c0.39,0.52,0.43,0.52,0.43,0.11
		c0-0.52-0.43-1.83-1.25-3.76c-0.32-0.77-0.97-2.44-1.43-3.74c-0.47-1.29-1.15-3.21-1.54-4.25c-0.79-2.17-0.82-2.58-0.34-3.53
		c0.43-0.86,0.64-1.04,1.88-1.52c0.56-0.21,1.16-0.52,1.34-0.7c0.29-0.25,0.18-0.3-0.7-0.3c-1.02,0-1.72-0.41-1.43-0.86
		c0.2-0.32-0.5-5.41-0.79-5.77c-0.14-0.18-0.32-0.27-0.39-0.2c-0.05,0.07-0.43,1.4-0.82,2.97l-0.7,2.85l-1.9,0.05
		c-1.02,0.04-1.99-0.02-2.13-0.11c-0.82-0.56-0.07-9.98,1.13-13.87c1.15-3.73,1.15-3.74,0.29-5.18c-0.43-0.7-1.06-1.88-1.42-2.61
		c-0.36-0.73-1.42-2.81-2.33-4.59c-0.93-1.79-1.9-3.78-2.17-4.42c-0.27-0.64-0.59-1.18-0.72-1.18c-0.34,0-0.34-0.02,0.56,3.24
		c0.91,3.31,1.56,5,2.94,7.77c1,2.02,1.16,2.92,0.66,3.6c-0.29,0.36-0.32,0.36-0.64,0c-0.59-0.68-3.08-4.84-3.08-5.16
		c0-0.18-0.13-0.27-0.29-0.21c-0.36,0.12-0.29,0.43,0.61,3.3c0.81,2.56,1.4,5.52,1.16,5.75c-0.09,0.09-0.56-0.25-1.06-0.73
		c-1.42-1.38-3.49-6.02-5.89-13.15c-1.49-4.44-2.1-5.71-4.3-8.92c-1.65-2.44-1.86-2.96-2.65-6.47c-0.21-0.91-0.68-2.2-1.04-2.85
		c-0.54-0.95-0.66-1.43-0.66-2.58c0-1.59,0.29-2.11,1.45-2.85c1.49-0.91,1.99-0.93,3.3-0.14c0.73,0.43,1.31,0.97,1.49,1.38
		c1.04,2.4,1.4,2.49,1.24,0.29c-0.16-2.01,0.07-2.33,1.54-2.08c0.7,0.12,1.15,0.38,1.63,0.93c0.38,0.43,1.2,1.34,1.83,2.04
		c0.63,0.7,1.54,2.08,2.04,3.06c0.48,0.99,1.34,2.51,1.9,3.37c2.53,3.94,3.82,6.82,4.96,11.11c1.16,4.41,1.85,5.89,3.67,8.03
		c2.78,3.24,4.48,4.6,8.54,6.84c3.35,1.83,4.91,2.99,7.51,5.57c2.7,2.7,4.26,4.73,5.59,7.29c1.58,3.06,2.36,6.07,2.83,10.86
		c0.29,2.83,0.56,3.8,1.29,4.46c0.39,0.36,0.82,0.41,2.9,0.38c1.52,0,3.01,0.11,3.96,0.34c1.49,0.34,1.54,0.34,3.44-0.25
		c1.07-0.32,2.15-0.79,2.4-1.02c1.09-0.99,1.52-0.21,1.22,2.19c-0.13,0.97-0.27,2.33-0.34,3.03c-0.18,1.68-0.82,2.61-2.33,3.39
		c-1.45,0.73-2.13,1.32-2.74,2.42c-0.25,0.45-0.77,0.99-1.16,1.22c-1.54,0.88-2.13,1.85-0.97,1.56c0.84-0.21,3.73-0.48,3.74-0.34
		c0,0.07-0.36,1.24-0.77,2.58c-0.43,1.36-1,3.3-1.27,4.32c-0.66,2.51-0.88,2.61-1.67,0.9c-0.34-0.77-0.75-1.81-0.9-2.29
		c-0.27-0.88-0.25-0.93,0.43-1.59c1-0.99,2.22-2.56,2.08-2.71c-0.05-0.05-0.73,0.11-1.49,0.39c-0.81,0.29-1.45,0.41-1.58,0.3
		c-0.09-0.12-0.29-0.84-0.39-1.61c-0.16-1.08-0.14-1.5,0.09-1.79c0.39-0.52,0.38-0.66-0.13-0.79c-0.23-0.05-0.52-0.47-0.68-0.97
		c-0.48-1.49-1.49-2.81-3.62-4.8c-3.39-3.12-3.49-3.12-1.67,0.16c1.11,2.02,1.72,3.62,3.06,8.13c0.27,0.93,0.88,2.51,1.34,3.53
		c1.93,4.19,1.76,5.68-0.88,7.58c-2.26,1.61-3.64,4.33-3.64,7.22c0,0.75,0.02,0.75,0.84,0.61c1.36-0.27,2.4-0.93,3.73-2.38
		c0.68-0.77,1.58-1.59,1.99-1.85c0.39-0.23,0.84-0.59,0.99-0.81c0.54-0.75,2.72-2.94,2.96-2.94c0.41,0,3.4-2.7,3.76-3.4
		c0.54-1.06,0.3-1.31-0.86-0.91c-0.52,0.18-1.06,0.41-1.18,0.54c-0.11,0.11-0.34,0.2-0.48,0.2c-0.2,0-0.02-0.54,0.48-1.5
		c0.54-1.04,0.95-2.38,1.34-4.32c0.32-1.52,0.68-3.13,0.82-3.58c0.66-2.2,2.31-6.29,2.94-7.24c0.5-0.82,0.72-1.43,0.79-2.42
		c0.09-1.36,0.29-1.56,1.04-1c0.34,0.25,0.39,0.5,0.29,1.7c-0.11,1.18-0.07,1.45,0.3,1.83c0.59,0.59,1.27,0.52,2.42-0.25
		c1.31-0.9,1.65-0.56,0.68,0.65c-0.54,0.68-0.75,1.2-0.84,2.04c-0.07,0.77-0.02,1.11,0.16,1.11c0.61,0,1.63-0.73,2.13-1.54
		c0.43-0.66,0.73-0.9,1.4-1.02c0.47-0.09,1.2-0.41,1.61-0.73c0.86-0.64,2.67-1.18,4.51-1.33c1.15-0.11,1.27-0.05,1.54,0.45
		c0.2,0.38,0.61,0.64,1.22,0.79c1.11,0.29,1.7,0.81,2.51,2.17c0.48,0.82,0.57,1.2,0.48,1.95c-0.18,1.27,0.29,2.31,1.22,2.72
		c0.95,0.43,1.45,0.88,2.49,2.24c1.06,1.38,1.09,1.92,0.13,1.92c-0.5,0-0.97,0.25-1.65,0.88l-0.93,0.88l-1.2-0.31
		c-0.75-0.2-1.43-0.57-1.86-1c-0.95-0.98-1.42-0.81-2.47,0.93c-0.5,0.82-1.11,1.76-1.34,2.08c-0.23,0.34-0.64,1.22-0.93,1.99
		l-0.5,1.4l-1.79,0.11c-1.83,0.13-2.38,0.38-2.63,1.15c-0.34,1.09,1.24,1.4,3.82,0.73c0.73-0.2,1.65-0.39,2.02-0.45
		c0.36-0.07,1.72-0.32,3.03-0.56c1.38-0.27,3.01-0.43,3.91-0.39l1.58,0.07l0.21,1.47c0.13,0.81,0.45,1.83,0.73,2.26
		c0.27,0.45,0.5,1.02,0.5,1.25c0,0.57-0.9,1.18-1.76,1.18c-0.9,0-3.67-1.18-5-2.13c-0.59-0.43-1.16-0.79-1.27-0.79
		c-0.11,0-0.38-0.2-0.59-0.45c-0.61-0.66-1.49-0.56-2.31,0.3c-0.54,0.56-0.72,0.93-0.72,1.56c0,0.95,0.23,1.07,0.56,0.32
		c0.2-0.41,0.43-0.5,1.38-0.56c0.9-0.05,1.47,0.07,2.69,0.63c0.84,0.39,2.24,1.04,3.12,1.43c1.47,0.68,3.22,1.97,3.22,2.37
		c0,0.09-0.39,0.45-0.9,0.79c-0.88,0.61-0.97,0.63-1.93,0.38c-0.56-0.16-1.56-0.63-2.24-1.07c-1.47-0.93-1.92-0.91-1.11,0.07
		c0.32,0.38,0.59,0.84,0.59,1.04c0,1.08-6.09,3.19-7.31,2.54c-0.84-0.45-1.86-1.61-2.11-2.38c-0.14-0.45-0.56-1.43-0.91-2.22
		c-0.34-0.77-0.64-1.45-0.64-1.51c0-0.23-1.2-2.54-1.67-3.19c-0.29-0.39-0.7-1.31-0.9-2.01c-0.22-0.72-0.48-1.58-0.59-1.93
		c-0.11-0.36-0.2-1.38-0.2-2.28c0-1.93-0.29-2.87-1.95-6.25c-0.3-0.63-0.63-1.68-0.7-2.37c-0.14-1.15-0.18-1.18-0.45-0.7
		c-0.16,0.27-0.32,1.29-0.36,2.24c-0.04,1.04-0.21,2.01-0.43,2.44c-0.2,0.39-0.38,0.84-0.38,1.02c0,0.16-0.45,1.25-1,2.4
		c-0.61,1.24-1,2.33-0.97,2.67c0.07,0.5,0.27,0.32,1.7-1.61c0.9-1.2,1.77-2.19,1.95-2.19c0.52,0,0.77,0.75,0.99,2.79
		c0.13,1.31,0.38,2.29,0.77,3.1c0.38,0.73,0.5,1.24,0.38,1.38c-0.13,0.11-1.06,0.29-2.08,0.38c-1.9,0.16-3.48,0.48-4.25,0.9
		c-0.59,0.32-0.39,0.45,0.88,0.52c1.31,0.09,3.71,0.97,3.6,1.33c-0.14,0.41-1.02,0.43-2.74,0.02c-0.99-0.21-2.01-0.32-2.6-0.25
		c-0.54,0.07-1.74,0.23-2.67,0.36c-2.7,0.34-4.35,1-3.6,1.45c0.3,0.2-0.56,1.59-1.34,2.17c-0.36,0.25-0.66,0.61-0.66,0.79
		c0,0.29,0.11,0.29,0.77,0c0.43-0.18,0.99-0.27,1.24-0.2c0.27,0.07,0.99-0.14,1.67-0.47c1.65-0.81,3.1-0.81,3.85,0
		c0.3,0.32,0.54,0.7,0.54,0.81c0,0.13,1.02,1.22,2.24,2.44c1.99,1.95,4.66,5.48,4.37,5.75c-0.34,0.36-2.06-0.91-3.74-2.72
		c-2.33-2.53-3.3-3.21-5.12-3.64c-1.45-0.34-4.93-0.27-5.57,0.12c-0.36,0.23-0.09,0.68,0.41,0.68c0.21,0,0.57,0.13,0.81,0.29
		c0.38,0.29,0.36,0.32-0.2,0.68c-0.88,0.59-0.5,0.82,1.34,0.82c1.86,0,2.87,0.39,4.57,1.79c1.42,1.16,2.29,1.58,3.39,1.58
		c0.99,0,1.33,0.27,3.33,2.7c1.22,1.45,3.03,2.67,5.61,3.76c2.29,0.95,2.4,1.04,4.93,3.58c3.74,3.8,4.16,4.48,6.11,10.26
		c0.77,2.29,1.07,1.79,1.22-2.08c0.11-2.38,0.43-3.9,0.86-3.9c0.07,0,0.72,0.5,1.47,1.11c0.73,0.61,1.43,1.13,1.54,1.13
		c0.13,0,0.73,0.5,1.36,1.13c0.63,0.63,1.2,1.08,1.27,1c0.07-0.07-0.14-0.75-0.47-1.52c-0.34-0.77-0.61-1.49-0.61-1.59
		c0-0.11,0.34-0.13,0.73-0.05c1,0.21,3.64,0.54,6.41,0.81c4.41,0.43,5.59,1.11,8.42,4.8c1.4,1.83,2.31,4.25,2.94,7.85
		c0.5,2.79,0.57,10.25,0.13,13.11c-0.16,1.04-0.43,2.85-0.61,4.03c-0.18,1.16-0.54,3.28-0.77,4.69c-0.68,3.98-0.52,8.02,0.54,12.88
		c0.93,4.32,1.29,9.92,1.11,17.91l-0.13,6.04l0.72,2.58c1,3.58,1.42,5.37,1.25,5.54c-0.07,0.07-0.52,0-0.99-0.14
		c-1.06-0.36-2.69-0.21-4.25,0.34c-1.27,0.47-1.42,0.84-0.38,0.95c0.82,0.07,2.29,0.75,3.85,1.74c0.64,0.41,1.24,0.77,1.31,0.77
		c0.34,0,2.13,1.43,3.22,2.58c0.68,0.72,1.45,1.5,1.72,1.77c0.27,0.27,0.61,0.97,0.73,1.56c0.14,0.59,0.36,1.27,0.48,1.51
		c0.29,0.56-0.05,1-0.91,1.2c-0.34,0.07-0.97,0.38-1.38,0.7c-0.41,0.3-1.16,0.73-1.65,0.97c-0.5,0.23-1.2,0.68-1.58,1l-0.66,0.57
		l1.02,0.95c0.56,0.52,1.11,1.2,1.25,1.52c0.21,0.52,0.23,0.91,0.13,3.4l-0.05,1.08h-1.13c-1.74,0-3.13,0.91-5.19,3.44l-0.54,0.64
		l-0.7-1.2c-0.38-0.66-1.18-1.81-1.81-2.56c-2.63-3.13-4.93-7-5.73-9.66c-0.07-0.27-0.29-0.61-0.45-0.73
		c-0.5-0.41-0.64,0.11-0.25,0.93c0.18,0.39,0.63,1.77,1,3.04c0.77,2.62,1.31,3.89,2.26,5.45c1.24,2.02,0.72,2.1-1.15,0.14
		c-0.72-0.75-1.38-1.31-1.47-1.22c-0.09,0.09,0.27,1.04,0.81,2.11c0.79,1.61,1.36,2.35,3.22,4.23c2.47,2.51,2.42,2.4,1.36,4.03
		l-0.32,0.5l-1.42-0.99c-1.65-1.17-5.59-5.18-6.74-6.88c-0.95-1.38-1.77-3.87-2.11-6.23c-0.13-0.91-0.48-2.58-0.79-3.69
		c-0.29-1.11-0.72-2.67-0.93-3.46c-0.32-1.22-0.36-1.92-0.21-4.1c0.11-1.83,0.23-2.61,0.41-2.56c0.14,0.03,1.02,1.63,1.97,3.53
		c2.28,4.62,2.58,4.64,1.34,0.11c-0.39-1.42-0.5-2.56-0.57-5.45c-0.04-1.99,0-3.67,0.07-3.72c0.23-0.14,2.33,1.07,2.49,1.45
		c1.22,2.69,2.19,4.32,2.47,4.14c0.11-0.09,0.21-0.61,0.21-1.2c0-1.7,0.18-2.06,0.99-2.06c1.47,0,2.58-1.09,4.57-4.51
		c2.38-4.08,2.9-6.06,2.29-8.76c-0.11-0.52-0.32-1.54-0.47-2.28c-0.27-1.36-1.67-4.37-2.04-4.37c-0.25,0-0.23,0.27,0.05,1.45
		c0.23,0.9,0.2,1.08-0.38,2.11c-0.34,0.63-1.11,1.61-1.72,2.19c-1.06,0.98-1.13,1.02-2.13,0.88c-0.57-0.07-1.13-0.23-1.24-0.34
		c-0.27-0.27-2.4-5.88-3.55-9.31c-1.25-3.74-1.33-3.92-1.58-3.78c-0.11,0.07-0.14,0.3-0.07,0.5c0.09,0.2,0.39,1.63,0.7,3.17
		c0.29,1.54,0.73,3.3,0.99,3.92c0.54,1.36,0.97,3.94,0.7,4.21c-0.23,0.22-1.15-0.68-1.15-1.11c0-0.66-1.15-2.78-2.42-4.42
		c-2.22-2.92-2.49-3.74-3.89-11.77c-0.29-1.68-1-4.37-1.97-7.4c-0.88-2.74-0.86-3.74,0.07-5.57c0.41-0.79,0.81-1.34,0.88-1.22
		c0.14,0.21,0.21,0.5,0.99,3.64c0.66,2.69,0.93,2.19,0.5-0.93c-0.21-1.5-0.41-2.94-0.47-3.19c-0.09-0.56-0.05-0.56,2.04-0.05
		c2.42,0.59,3.46,0.88,3.69,1.09c0.29,0.25,1.02,0.23,1.02,0c0-0.11-0.61-0.47-1.38-0.79c-0.75-0.34-1.63-0.88-1.95-1.22
		c-0.32-0.36-1.15-1.04-1.83-1.54c-1.09-0.79-1.38-1.18-2.31-3.12c-0.59-1.22-1.45-2.87-1.93-3.67c-0.48-0.81-1.24-2.45-1.68-3.69
		c-0.75-2.08-0.81-2.42-0.77-4.59c0.04-2.47-0.18-6.38-0.39-6.95c-0.14-0.41-0.72,1.63-0.72,2.63c-0.02,0.39-0.27,1.38-0.57,2.2
		c-0.3,0.82-0.57,1.93-0.57,2.47c0,0.54-0.09,0.99-0.21,0.99s-0.23-0.09-0.23-0.18c0-0.09-0.45-0.97-1-1.93
		c-0.61-1.09-1.09-2.29-1.25-3.13c-0.14-0.75-0.7-3.1-1.22-5.23c-0.99-3.96-1.58-5.34-3.46-8.11c-1.65-2.42-2.53-2.7-1.38-0.45
		c0.7,1.36,1.56,4.28,2.02,6.82c0.14,0.75,0.45,2.37,0.72,3.58c0.84,4.08,0.95,5.14,0.7,6.86c-0.14,0.88-0.34,1.7-0.45,1.81
		c-0.13,0.13-0.43-0.18-0.79-0.79c-0.72-1.22-7.18-7.31-7.77-7.31c-0.39,0-0.21,0.34,0.9,1.79c1.88,2.42,1.4,2.61-1.92,0.77
		c-1.22-0.66-2.49-1.22-2.83-1.22c-0.36,0-1.34-0.36-2.2-0.81c-2.11-1.06-2.44-0.93-1.2,0.45c1.07,1.18,1.18,1.49,0.66,1.9
		c-0.25,0.21-0.52,0.16-1.31-0.3c-0.56-0.32-1.07-0.5-1.13-0.39c-0.07,0.12,0.16,0.59,0.54,1.06c0.81,1.02,0.81,1.16,0.09,1.97
		c-0.39,0.45-0.7,0.61-1.02,0.52c-0.38-0.09-0.45-0.04-0.36,0.32c0.09,0.3-0.11,0.63-0.66,1.08c-1.47,1.22-3.39,1.45-5.57,0.68
		c-0.99-0.34-1.65-0.43-2.56-0.34c-0.68,0.07-2.29,0.2-3.58,0.27c-2.24,0.13-2.45,0.09-4.34-0.57c-6.36-2.28-11.45-5.84-13.09-9.21
		c-1.09-2.2-1.22-4.69-0.3-5.71c0.2-0.23,0.68-0.82,1.04-1.33c0.36-0.48,0.72-0.95,0.79-1c0.45-0.39,2.04-2.74,1.93-2.85
		c-0.39-0.39-3.83,2.88-4.62,4.42c-1.77,3.35-1.85,6.41-0.21,9.75c0.81,1.68,3.22,4.3,6.27,6.83c1.27,1.04,4.14,3.4,6.36,5.25
		c2.22,1.84,4.57,3.69,5.18,4.08c1.54,0.99,4.17,2.04,5.88,2.37c0.77,0.14,1.4,0.38,1.4,0.5c0,0.12-0.27,0.41-0.61,0.61
		c-0.34,0.2-1.25,0.99-2.02,1.72c-1.67,1.61-1.95,1.67-5.32,0.81c-1.22-0.3-3.33-0.7-4.69-0.88c-3.46-0.47-4.37-0.88-4.37-2.04
		c0-0.29-0.11-0.59-0.23-0.66c-0.38-0.25-0.66,0.93-0.7,2.97c-0.05,3.08,0.43,3.49,4.17,3.69c1.36,0.07,3.31,0.34,4.34,0.61
		c1.15,0.29,2.4,0.45,3.19,0.41c1.18-0.05,1.36,0,1.99,0.59c1.2,1.15,1.13,1.92-0.3,3.44c-0.38,0.41-0.99,0.9-1.36,1.09
		c-0.84,0.45-7.42,0.82-10.59,0.63c-2.27-0.16-2.33-0.18-3.08-0.95c-0.68-0.7-0.79-0.75-0.93-0.39c-0.13,0.36,0.09,1.77,0.5,3.13
		c0.09,0.3-0.09,0.73-0.54,1.29c-0.36,0.45-0.82,1.34-1.04,1.99c-0.2,0.63-0.63,1.52-0.91,1.95c-0.54,0.79-0.56,0.81-0.09,0.88
		c0.45,0.07,2.69-1.09,3.83-2.01c0.43-0.34,1.09-0.52,2.47-0.66c1.02-0.09,2.51-0.39,3.31-0.64c0.81-0.27,2.58-0.66,3.94-0.88
		c1.58-0.27,2.94-0.64,3.74-1.04c1.22-0.59,1.31-0.61,3.12-0.38c1.83,0.21,4.64,0.09,7.77-0.36c3.82-0.56,7.02-1.2,7.97-1.61
		c0.99-0.41,1.67-0.56,1.67-0.34c0,0.29-1.47,2.37-2.28,3.21c-1.13,1.2-2.42,1.95-4.5,2.67c-1.38,0.47-1.9,0.54-3.42,0.43
		c-0.99-0.05-2.06-0.18-2.4-0.27c-1.59-0.38,0.25,1.92,2.17,2.72c2.01,0.84,6.34-0.27,9.01-2.29c0.41-0.32,0.81-0.54,0.88-0.47
		c0.16,0.16-3.4,7.08-4.91,9.51c-0.7,1.13-1.99,2.99-2.85,4.14c-2.96,3.94-3.87,6.56-3.91,11.16c0,2.13,0.05,2.56,0.32,2.56
		c0.23,0,0.39-0.32,0.48-1c0.2-1.34,0.45-1.93,1.72-4.1c1.4-2.38,2.83-5.39,3.65-7.69c0.66-1.81,0.7-1.86,4.42-5.59
		c2.06-2.08,4.8-4.71,6.09-5.84c1.29-1.11,3.1-2.88,4.01-3.9c2.53-2.87,2.31-2.76,2.15-1.15c-0.11,0.86-0.05,1.72,0.11,2.28
		c0.27,0.9,0.27,0.91-0.82,2.17c-0.61,0.7-1.34,1.54-1.67,1.88c-1.13,1.25-3.76,3.49-6.59,5.61c-3.69,2.74-5.95,4.59-6.43,5.23
		c-0.21,0.29-0.84,1.7-1.38,3.17c-0.56,1.47-1.36,3.47-1.79,4.46c-0.45,0.99-0.88,2.24-0.95,2.78c-0.27,1.74,0.52,4.12,2.13,6.5
		c0.36,0.56,0.61,1.07,0.56,1.18c-0.07,0.09-0.68-0.21-1.4-0.68c-1.77-1.22-2.67-1.65-2.83-1.38c-0.2,0.3,1.27,3.3,2.7,5.52
		c0.97,1.5,1.2,2.08,1.2,2.81c0,0.5,0.21,1.51,0.48,2.22l0.47,1.29l-0.61,1.06c-0.34,0.57-1.02,1.42-1.52,1.85
		c-2.87,2.56-3.76,3.76-3.42,4.64c0.18,0.47,2.31,1.43,3.15,1.43c0.38,0,1.42-0.2,2.31-0.45c0.91-0.25,1.72-0.39,1.81-0.34
		c0.11,0.07,0.25,0.63,0.32,1.27c0.16,1.33,0.73,2.38,1.09,2.02c0.38-0.36,1.5-4.48,1.67-6.02c0.09-0.9,0.25-1.4,0.41-1.4
		c0.57,0,0.73,2.44,0.32,4.5c-0.36,1.79-0.27,5.41,0.16,6.48c0.29,0.72,0.3,1.02,0.11,1.47c-0.41,0.91-0.29,2.04,0.41,3.44
		c0.57,1.13,1.61,2.47,1.92,2.47c0.05,0,0.04-0.81-0.04-1.79c-0.13-1.54-0.07-1.93,0.36-2.94c0.5-1.18,0.5-2.26,0-4.19
		c-0.11-0.43-0.09-1.31,0.05-2.13c0.36-2.1,0.29-2.02,1.29-1.51c1.45,0.75,2.4,1.72,3.74,3.91c1.43,2.29,1.68,2.92,2.29,5.62
		l0.41,1.9l-0.59,0.13c-1.07,0.21-1.7,0.66-1.93,1.4c-0.14,0.39-0.66,1.15-1.18,1.68c-1,1.02-1.16,1.68-0.56,2.2
		c0.68,0.57,1.16,0.64,2.22,0.27l1.04-0.34l2.2,1.49c1.2,0.82,2.27,1.45,2.4,1.36c0.5-0.31-0.86-3.62-1.81-4.42l-0.73-0.59
		l0.61-0.23c1.13-0.43,1.38-1.72,0.63-3.28c-0.52-1.06-0.54-1.22-0.16-1.22c0.41,0,1.88,1.58,3.35,3.58
		c0.66,0.93,1.76,2.13,2.4,2.69c2.29,1.93,2.87,2.58,3.13,3.48c0.64,2.22,0.91,3.31,0.81,3.4c-0.14,0.14-0.79-0.59-3.92-4.48
		c-1.47-1.81-2.74-3.19-2.81-3.08c-0.07,0.11,0.34,1.2,0.91,2.4c0.57,1.2,1.49,3.15,2.04,4.32c0.54,1.16,1.2,2.56,1.47,3.08
		c0.25,0.52,0.39,1.02,0.32,1.09c-0.25,0.25-1.86-1.02-3.4-2.65c-0.81-0.88-1.52-1.52-1.58-1.47c-0.05,0.05-0.04,0.57,0.05,1.16
		c0.14,1.08,0.52,1.58,2.42,3.26c0.34,0.3,1.16,1.36,1.79,2.35c1.4,2.15,1.74,2.45,3.98,3.69c2.33,1.25,2.9,2.26,1.31,2.26
		c-2.13,0-2.94,1.15-2.94,4.23c0,1.15-0.09,2.26-0.23,2.51c-0.13,0.23-0.32,1.25-0.43,2.28c-0.11,1-0.27,2.15-0.36,2.51l-0.16,0.68
		l0.77-0.63c0.41-0.34,1.02-0.84,1.34-1.13c0.45-0.36,0.82-1.17,1.42-3.01c0.43-1.38,0.79-2.81,0.79-3.15
		c0-0.63,0.04-0.64,1.49-0.79c1.04-0.09,1.65-0.04,2.08,0.18c0.32,0.16,1.15,0.38,1.81,0.45c0.68,0.09,1.54,0.32,1.92,0.5
		c0.61,0.3,2.83,1.18,2.96,1.18c0.29,0.02-0.07-0.97-0.64-1.81c-0.93-1.36-1.72-1.79-3.48-1.93c-1.27-0.11-1.47-0.18-1.65-0.66
		c-0.45-1.13-0.25-1.68,0.91-2.79c1.27-1.22,1.72-1.29,3.01-0.57c0.68,0.39,0.93,0.7,1.07,1.34c0.34,1.38,1.88,2.88,4.07,3.94
		c1.06,0.52,2.01,0.93,2.15,0.93c0.41,0,1.97,0.88,2.72,1.54c0.41,0.34,1,0.7,1.33,0.77c0.68,0.16,0.86,0.79,0.86,2.87
		c0,0.75,0.21,1.9,0.47,2.65c0.63,1.81,0.54,2.24-0.34,1.54c-0.52-0.41-0.63-0.43-0.5-0.12c0.07,0.21,0.05,0.39-0.07,0.39
		c-0.13,0-0.21,0.25-0.21,0.59c0,0.41,0.34,0.93,1.24,1.77c0.68,0.66,1.22,1.31,1.22,1.43c0,0.14,0.39,0.41,0.84,0.59
		c0.47,0.2,1.06,0.57,1.31,0.86c0.41,0.43,0.75,0.5,3.21,0.64c1.52,0.07,2.85,0.09,2.96,0.02c0.3-0.2,0.02-0.54-0.45-0.54
		c-0.21,0-0.77-0.36-1.24-0.79c-0.72-0.68-0.99-0.79-1.92-0.79c-1.22,0-1.58-0.41-1.04-1.2c0.16-0.27,0.32-0.56,0.36-0.64
		c0.2-0.57,0.66-3.51,0.81-5c0.07-0.98,0.27-2.08,0.39-2.42l0.27-0.61l2.51,1.49c3.05,1.83,4.1,2.85,5.09,4.89
		c2.01,4.14,2.04,4.69,0.54,7.77c-1.15,2.37-1.31,3.69-0.68,5.48c0.66,1.95,0.73,2.47,0.82,7.26c0.05,3.62,0.16,4.84,0.64,7.17
		c1.06,5.02,1.16,6.23,0.73,7.97c-0.59,2.51-0.68,4.1-0.29,5.25c0.2,0.54,0.36,1.22,0.36,1.49c0,0.27,0.23,0.64,0.5,0.84
		c0.68,0.48,1.09,0.04,1.16-1.25c0.04-0.54,0.14-0.97,0.27-0.95c0.39,0.02,1.86,3.33,2.2,5.02c0.2,0.91,0.57,2.44,0.82,3.37
		c0.27,0.91,0.68,2.47,0.91,3.46c0.23,0.99,0.48,2.02,0.56,2.29c0.14,0.59,0.41,0.66,0.61,0.16c0.25-0.64,0.13-5.3-0.21-8.72
		c-0.18-1.85-0.43-4.32-0.56-5.48c-0.11-1.16-0.32-2.62-0.47-3.22c-0.16-0.64-0.2-1.81-0.13-2.85c0.16-2.15-0.18-3.42-1.58-5.84
		c-0.75-1.33-1.07-2.19-1.33-3.58c-0.18-1.02-0.48-2.51-0.68-3.31c-0.2-0.81-0.43-2.97-0.5-4.82c-0.13-2.74-0.25-3.6-0.7-4.75
		c-0.29-0.77-0.45-1.47-0.34-1.58c0.23-0.23,2.26,2.06,2.81,3.19c0.72,1.47,2.22,7.94,2.94,12.61c0.21,1.47,0.23,2.13,0.02,3.15
		c-0.14,0.7-0.27,2.02-0.27,2.94c0,1.45,0.11,1.85,0.84,3.35c0.7,1.4,1.33,2.19,3.82,4.71c2.38,2.4,3.42,3.67,5.07,6.16
		c1.15,1.72,2.69,3.87,3.42,4.77c2.02,2.47,3.78,6.11,4.19,8.67c0.07,0.48,0.34,3.37,0.59,6.38c0.25,3.01,0.54,6.29,0.64,7.27
		c0.63,5.84,0.73,7.4,0.61,9.64c-0.07,1.34-0.23,3.06-0.38,3.8c-0.14,0.75-0.34,1.9-0.47,2.56c-0.11,0.66-0.2,2.96-0.2,5.07
		c0,3.71,0.02,3.94,0.68,5.95c0.63,1.9,0.68,2.29,0.57,4.12c-0.07,1.11-0.23,4.64-0.36,7.83c-0.13,3.21-0.32,6.93-0.47,8.29
		c-0.13,1.34-0.29,5.97-0.36,10.26c-0.14,8.65-0.07,9.48,1.15,12.24c0.66,1.52,0.75,2.01,0.99,5.16c0.47,6.29,0.99,10.14,1.93,14.2
		c1.54,6.77,2.22,14.01,1.68,18.15c-0.47,3.48-0.95,14.6-0.99,22.73c-0.04,9.71-0.18,8.85,1.85,11.37c0.63,0.77,1.2,1.68,1.27,2.01
		c0.32,1.58,0.61,2.67,0.79,3.13C533.76,726.61,533.72,726.72,533.35,726.81z M441.31,330.2c0.59,0.54,0.57,0.93-0.05,1.09
		c-0.29,0.07-0.56,0.13-0.61,0.13c-1.79-0.3-3.15-0.59-3.28-0.7c-0.07-0.09,0.23-0.22,0.68-0.31c1.04-0.2,0.84-0.38-0.99-1.04
		c-1.92-0.68-2.08-1.22-0.41-1.34c0.68-0.05,1.5,0.02,1.93,0.2c0.43,0.16,1.36,0.3,2.08,0.3c1.38,0,1.72,0.29,0.75,0.66
		C440.73,329.44,440.72,329.66,441.31,330.2z M472.67,486.37c0.59,1.32,0.32,1.56-1.11,0.95c-1.5-0.64-1.88-0.61-3.78,0.3
		c-0.88,0.43-1.7,0.79-1.79,0.79c-0.29,0-1.07-0.91-1.49-1.72c-0.54-1.07-0.91-2.33-1.81-5.89c-1.02-4.08-1.86-6.68-2.36-7.38
		c-0.21-0.3-1.13-1.06-2.02-1.68c-1.29-0.9-1.97-1.6-3.15-3.22c-1.9-2.67-2.47-3.24-3.94-4.08c-1.29-0.73-1.67-1.18-3.71-4.68
		c-1.67-2.88-2.87-4.12-5.12-5.27c-1.27-0.66-1.85-1.09-2.17-1.68c-0.56-0.99-1.38-3.98-1.38-5.03c0-0.43-0.07-0.97-0.18-1.18
		c-0.13-0.21-0.59-1.59-1.07-3.08c-0.88-2.78-1.49-3.99-2.96-6c-0.47-0.63-1.63-2.29-2.58-3.69c-2.11-3.12-2.17-3.51-0.79-6.59
		c0.5-1.15,1.36-3.37,1.9-4.96c1.13-3.31,0.79-2.94,6.13-6.97c4.55-3.42,6.91-5.45,8.54-7.27c0.77-0.86,1.47-1.56,1.54-1.56
		c0.47,0,0.93,0.72,1.13,1.79c0.13,0.66,0.32,3.05,0.43,5.25c0.23,4.5,0.52,5.91,1.85,8.96c0.48,1.11,1.02,2.42,1.18,2.92
		c0.43,1.31,1.36,5.14,1.65,6.82c0.14,0.81,0.61,3.37,1.02,5.71c1.25,6.95,2.29,13.99,2.72,18.36c0.38,4.08,1.06,6.13,2.88,8.92
		c1.5,2.29,3.87,4.51,7.51,7.06l2.81,1.97l0.14,1.43c0.09,0.79,0.32,2.11,0.54,2.96l0.36,1.52l-0.7,0.79
		c-0.64,0.73-0.68,0.88-0.68,2.62C472.21,484.9,472.33,485.63,472.67,486.37z M432.08,385.03c0.25,0.16,4.14-1.22,5.59-1.97
		c0.59-0.31,1.67-0.95,2.4-1.45c0.75-0.5,1.49-0.91,1.65-0.91c0.63,0,0,2.01-1.76,5.54c-1.7,3.48-1.81,3.64-3.91,5.68
		c-1.18,1.16-3.13,2.78-4.33,3.58c-1.95,1.33-2.35,1.49-3.62,1.63c-2.71,0.29-3.56,0.14-5.07-0.81c-1.49-0.95-1.61-1.13-1.49-2.38
		c0.09-0.93,0-1.31-0.47-2.11c-0.32-0.54-0.84-1.15-1.15-1.36c-0.75-0.48-0.56-0.88,0.99-1.92c0.72-0.48,1.4-1.17,1.54-1.51
		c0.43-1,3.69-2.81,6.4-3.53c2.42-0.63,4.57-1.67,6.29-3.03c1.09-0.86,4.35-2.9,5.91-3.69c0.48-0.25,0.82-0.31,0.97-0.18
		c0.14,0.14-0.3,0.66-1.2,1.43c-0.79,0.66-2.35,2.11-3.48,3.22c-1.77,1.74-2.27,2.1-3.53,2.54
		C432.39,384.31,431.71,384.8,432.08,385.03z"/>
	<path d="M512.75,562.73c0-2.58-0.23-3.56-0.79-3.56c-0.54,0-0.79,0.97-0.79,3.06c0,1.17-0.18,2.71-0.48,3.94
		c-0.39,1.72-0.45,2.46-0.34,4.84c0.07,1.56,0.23,3.62,0.38,4.6c0.13,0.99,0.32,2.71,0.45,3.82c0.13,1.11,0.38,3.31,0.56,4.93
		c0.18,1.59,0.39,3.92,0.47,5.14c0.07,1.24,0.18,2.49,0.25,2.81c0.11,0.54,0.13,0.52,0.45-0.23c0.23-0.56,0.41-2.7,0.64-7.61
		c0.18-3.76,0.48-7.88,0.68-9.17c0.47-3.05,0.32-4.69-0.66-7.7C512.82,565.39,512.75,564.9,512.75,562.73z"/>
	<path d="M455.03,645.03c-0.05-0.27-2.4-1-3.24-1c-0.34,0-1.38-0.38-2.31-0.84c-1.79-0.88-2.38-0.86-2.53,0.11
		c-0.07,0.48,2.11,2.56,3.12,2.96c0.68,0.27,0.56,0.27,1.99-0.07C453.99,645.69,455.08,645.28,455.03,645.03z"/>
	<path d="M484.62,666.51c-2.04-0.68-4.82-1.2-6.91-1.25l-2.22-0.07l-1.52,1.79c-1.45,1.72-2.62,3.74-2.97,5.14
		c-0.09,0.38-0.04,1.49,0.11,2.51c0.29,1.81,0.27,1.85-0.32,2.87c-0.34,0.57-1.33,2.02-2.19,3.22c-2.13,2.92-2.56,3.83-3.08,6.56
		c-1.47,7.68-1.58,8.19-2.35,11.05c-0.84,3.13-1.7,7.4-1.7,8.44c0,0.47,0.16,1.79,0.36,2.94c0.63,3.6,0.07,7.43-2.04,13.94
		c-0.43,1.34-0.93,3.08-1.13,3.9c-0.18,0.81-0.43,1.83-0.56,2.28c-0.3,1.13-0.27,1.59,0.13,2.17c0.41,0.57,1.59,0.68,2.38,0.21
		c0.25-0.16,1.4-1.43,2.56-2.87c1.15-1.41,2.6-3.17,3.22-3.9c0.63-0.75,1.85-2.31,2.69-3.49c1.5-2.1,2.1-2.62,4.48-3.96
		c2.92-1.65,3.74-2.15,4.19-2.56c0.29-0.27,1-1.51,1.63-2.76c0.61-1.25,1.58-2.92,2.15-3.71c0.57-0.77,1.63-2.47,2.33-3.78
		c0.7-1.31,1.65-2.96,2.11-3.64c0.75-1.15,0.86-1.51,1.15-3.8c0.45-3.53,0.43-4.12-0.14-4.53c-0.59-0.39-0.97-0.27-2.06,0.68
		c-0.99,0.88-1.07,0.9-1.63,0.27c-0.25-0.25-0.95-0.75-1.58-1.11l-1.15-0.65l-0.27-1.63c-0.16-0.9-0.39-2.02-0.54-2.51
		c-0.25-0.88-0.3-0.9-1.38-1.02c-1.5-0.16-2.04-0.5-2.36-1.49c-0.54-1.59,0.04-5.09,0.95-5.84c0.88-0.72,7.06-3.64,7.72-3.64
		c0.61,0,2.51-2.06,3.3-3.58c0.97-1.83,1.45-3.94,0.99-4.37C488.67,668.07,486.49,667.15,484.62,666.51z"/>
	<path d="M459.99,682.34c0.05-0.09-0.3-0.3-0.79-0.45c-0.5-0.16-1.24-0.47-1.63-0.72c-0.79-0.48-1.38-0.56-1.61-0.18
		s0.45,0.9,1.61,1.22C458.86,682.56,459.81,682.61,459.99,682.34z"/>
	<path d="M493.83,605.49c0.52-0.57,0.57-2.15,0.09-2.45c-0.47-0.3-1.38-0.25-1.85,0.09c-0.47,0.38-2.62,4.07-2.62,4.51
		c0,0.18,0.13,0.34,0.29,0.34C490.16,607.98,493.33,606.05,493.83,605.49z"/>
	<path d="M461.8,679.73c0.56,0.22,0.82,0.11,0.66-0.27c-0.07-0.21-0.25-1.09-0.36-1.95c-0.27-1.99-0.86-3.87-1.99-6.29
		c-1.15-2.49-1.49-2.67-4.78-2.35c-3.85,0.36-4.14,0.65-3.73,3.85c0.14,1.15,0.41,2.31,0.59,2.6c0.16,0.27,0.81,0.75,1.42,1.06
		c0.63,0.32,1.36,0.93,1.72,1.43c0.84,1.16,1.33,1.38,3.99,1.63C460.56,679.55,461.68,679.69,461.8,679.73z"/>
	<path d="M490.91,646.3c-0.16,0.16-1.83,6.86-2.81,11.27c-0.54,2.44-0.88,2.62-6.99,3.71c-0.88,0.16-1.5,0.38-1.5,0.54
		c0,0.14,0.47,0.38,1.06,0.52c1.59,0.38,4.66,1.08,6.56,1.49c0.91,0.2,2.47,0.56,3.46,0.79c0.99,0.23,1.92,0.43,2.08,0.45
		c0.43,0.03,0.93-0.91,1.2-2.28c0.45-2.26-0.5-9.58-1.76-13.54C491.36,646.62,491.13,646.09,490.91,646.3z"/>
	<path d="M488.6,613.41c-0.04,0.21,0.05,0.38,0.21,0.38c0.45,0,1.43-0.82,1.24-1.02C489.78,612.5,488.67,612.98,488.6,613.41z"/>
	<path d="M406.36,621.54c-0.45-0.18-1.16-0.77-1.59-1.31c-1-1.22-2.54-2.06-4.78-2.6c-2.63-0.64-2.6-0.63-2.4-1.58
		c0.3-1.38,0.16-3.89-0.23-4.66c-0.5-0.97-0.48-1.09,0.3-1.41c0.38-0.16,1.27-0.95,1.99-1.76l1.31-1.45l-0.48-1.06
		c-0.27-0.59-0.7-1.34-0.93-1.7c-0.23-0.36-0.61-1.04-0.84-1.54c-0.48-1.07-0.97-1.61-1.79-2.04c-0.86-0.45-2.87-0.75-3.31-0.5
		c-0.45,0.23-1.09,2.01-1.09,3.03c0,0.59-0.13,0.81-0.64,1.07c-0.61,0.32-1.68,1.43-2.17,2.26c-0.21,0.38-0.27,0.36-0.7-0.25
		c-0.54-0.73-4.25-4.57-4.42-4.57c-0.25,0-0.11,3.51,0.2,4.87c0.16,0.77,0.54,1.72,0.84,2.13c0.99,1.32,1.76,3.03,1.76,3.94
		c0,0.77,0.48,2.65,1,3.92c0.18,0.41,0.07,0.41-1.88,0.3c-1.65-0.09-2.1-0.05-2.2,0.2c-0.25,0.68,0.23,1.85,1.52,3.55
		c0.75,0.99,1.7,2.51,2.13,3.39c1.52,3.15,3.69,4.55,8.83,5.7c3.49,0.79,6.13,0.18,7.9-1.81c0.52-0.57,1.27-1.24,1.7-1.43
		c1.24-0.65,1.81-1.42,1.81-2.47C408.17,622.71,407.67,622.1,406.36,621.54z"/>
	<path d="M478.05,498.98c1.43,0.97,1.86,1.08,1.65,0.34c-0.18-0.63-1.16-1.95-1.54-2.1c-0.43-0.16-1.52,0.32-1.42,0.65
		C476.79,498.01,477.37,498.51,478.05,498.98z"/>
	<path d="M482.1,514.26c1.11,0.63,1.81,0.72,2.2,0.23c0.38-0.45,0.09-1.15-0.73-1.76c-1.24-0.91-3.74-1.4-3.74-0.73
		C479.82,512.47,480.99,513.63,482.1,514.26z"/>
	<path d="M474.9,525.4c0.68,0.36,1.38,0.59,1.56,0.56c0.47-0.09,0.34-0.9-0.36-2.31c-0.68-1.4-1.59-1.9-2.45-1.33
		C472.39,523.14,472.89,524.38,474.9,525.4z"/>
	<path d="M433.89,467.27c0.66,1.29,1.38,2.24,2.36,3.19c0.79,0.75,1.54,1.38,1.67,1.38c0.61,0,0.5-0.32-1.58-4.26
		c-0.56-1.04-1.15-2.26-1.31-2.69c-0.5-1.29-1.09-1.99-2.45-2.87c-1.95-1.25-4.21-2.42-4.39-2.24c-0.16,0.16,0.88,1.43,3.4,4.17
		C432.37,464.8,433.37,466.23,433.89,467.27z"/>
	<path d="M463.2,513.54c0.59,0.64,1.47,1.77,1.93,2.51c0.48,0.75,1.06,1.58,1.31,1.83c0.7,0.79,1,0.47,0.88-0.97l-0.09-1.24
		l0.54,0.36c0.7,0.45,3.05,1.24,3.71,1.25c0.29,0,0.5-0.13,0.5-0.29c0-0.52-1.38-3.17-2.01-3.85c-0.34-0.38-0.7-1.02-0.77-1.47
		c-0.09-0.43-0.5-1.32-0.9-2.01c-0.41-0.68-1-1.79-1.34-2.47c-0.88-1.81-2.06-3.31-2.7-3.48c-1.06-0.27-1.9,1.08-1.9,3.06
		c0,0.45-0.14,1.18-0.34,1.61c-0.38,0.93-0.43,2.54-0.11,3.4C462.03,512.13,462.61,512.92,463.2,513.54z"/>
	<path d="M483.92,539.12c-0.27,0.36-0.3,0.9-0.2,2.79c0.09,1.29,0.23,2.81,0.34,3.37c0.11,0.54,0.13,1.07,0.02,1.18
		c-0.45,0.47-1.93-0.32-3.17-1.65c-0.99-1.06-1.4-1.36-1.79-1.29c-0.45,0.05-0.54,0.22-0.61,1c-0.13,1.74,1.27,3.56,3.42,4.51
		c0.7,0.32,1.04,0.63,1.15,1.02c0.45,1.76-1,4.08-3.96,6.39c-2.79,2.17-4.82,4.28-5.11,5.3c-0.14,0.56-0.14,1.38,0,2.53
		c0.14,0.93,0.32,2.29,0.41,3.05c0.09,0.73,0.13,2.65,0.07,4.25c-0.09,3.06,0.18,5.37,1.02,8.74c0.25,0.99,0.57,2.79,0.72,4.03
		c0.14,1.24,0.45,3.05,0.68,4.03c0.72,3.17,1.34,7.17,1.9,12.31c0.57,5.48,1.24,10.3,1.5,11.25c0.36,1.27,0.77,0.88,0.43-0.43
		c-0.13-0.54-0.34-2.88-0.48-5.21c-0.52-9.19-0.95-15.26-1.43-19.94c-0.18-1.72-0.39-5.05-0.47-7.38l-0.14-4.26l0.77-1.56
		c1.06-2.13,2.79-4.59,3.67-5.18c0.88-0.59,2.92-1.13,3.21-0.84c0.18,0.18,0.57,1.65,1.33,5c0.18,0.79,0.16,1.22-0.09,1.92
		c-0.48,1.31-0.43,2.26,0.14,2.83c0.47,0.47,0.47,0.56,0.2,1.97c-0.14,0.81-0.38,2.01-0.48,2.67c-0.3,1.63,0.04,1.97,0.7,0.7
		c0.27-0.54,0.93-1.67,1.47-2.54c0.79-1.29,0.99-1.79,0.99-2.63c0-0.64-0.13-1.15-0.34-1.33c-0.43-0.36-0.41-0.77,0.04-1.45
		c0.7-1.07,0.34-7.38-0.68-11.79c-0.29-1.27-0.59-2.72-0.66-3.22c-0.07-0.5-0.38-1.67-0.68-2.58c-0.47-1.47-0.5-1.84-0.32-3.31
		c0.11-0.91,0.39-2.36,0.64-3.24c0.59-2.15,0.56-3.62-0.13-5.43c-0.81-2.13-1.86-4.05-2.49-4.46c-0.29-0.18-0.54-0.48-0.54-0.64
		c0-0.16-0.16-0.43-0.36-0.61C484.3,538.73,484.21,538.75,483.92,539.12z"/>
	<path d="M466.64,538.28c-0.25,0.79-0.25,1.02,0,1.31c0.25,0.32,0.36,0.29,0.93-0.36c0.82-0.91,0.79-1.9-0.05-1.9
		C467.05,537.33,466.89,537.49,466.64,538.28z"/>
	<path d="M489.17,540.68c0.07-0.77-1.4-3.46-1.9-3.46c-0.61,0-0.18,3.03,0.56,3.87C488.38,541.7,489.1,541.49,489.17,540.68z"/>
	<path d="M438.62,479.27c3.91,1.42,11.7,5.71,14.4,7.94c0.59,0.48,1.27,0.7,1.27,0.39c0-0.84-4.44-5.27-6.93-6.93
		c-2.17-1.43-5.7-3.15-7.31-3.56c-1.76-0.45-5.88-0.99-8.97-1.16c-1.92-0.11-2.69-0.07-3.24,0.16l-0.75,0.32l1,0.12
		C430.74,476.91,435.54,478.14,438.62,479.27z"/>
	<path d="M346.97,656.62c-0.27-0.23-0.38-0.12-0.61,0.79c-0.54,2.01-1.74,3.94-3.94,6.34c-2.47,2.69-3.08,3.62-3.46,5.43
		c-0.32,1.45-0.43,1.58-3.12,3.57c-3.12,2.28-4.32,3.58-5.16,5.66c-0.39,0.99-0.82,2.44-0.95,3.24c-0.11,0.81-0.52,2.26-0.88,3.24
		c-2.13,5.71-2.47,6.9-2.38,7.95c0.11,1.15,2.17,5.82,3.53,8.06c0.73,1.18,0.82,1.49,0.66,2.1c-0.09,0.38-0.39,1.97-0.64,3.51
		c-0.25,1.52-0.57,3.33-0.68,3.99c-0.25,1.4-0.29,3.24-0.07,3.46c0.29,0.29,0.41,0.14,1-1.18c0.32-0.75,1.49-2.99,2.56-5
		c1.56-2.85,2.17-3.78,2.88-4.3c0.68-0.52,1.2-1.27,2.15-3.13c0.7-1.36,1.56-3.03,1.95-3.69c0.38-0.68,1.04-2.4,1.45-3.82
		c0.43-1.41,1.27-3.83,1.9-5.37c0.99-2.47,2.08-5.57,2.08-5.93c0-0.39-0.72,0.05-1.88,1.16l-1.31,1.29l0.18-1.34
		c0.09-0.73,0.18-2.79,0.2-4.59c0-3.03,0.05-3.31,0.59-4.37c0.3-0.61,0.7-1.47,0.88-1.9c0.16-0.43,0.72-1.54,1.24-2.45
		c1.18-2.08,1.43-3.01,1.7-6.27C347.33,657.17,347.33,656.91,346.97,656.62z"/>
	<path d="M338.72,657.82c2.31-1.41,3.12-2.63,3.92-6c0.72-3.03,0.9-4.14,0.66-4.28c-0.45-0.27-4.91,4.44-5.62,5.95
		c-0.38,0.82-0.66,3.44-0.52,4.82C337.19,658.7,337.32,658.66,338.72,657.82z"/>
	<path d="M487.47,515.84c0.25,0.12,0.72,0.68,1.02,1.24c0.72,1.29,1.06,1.67,1.9,2.08c0.48,0.23,0.81,0.66,1.16,1.52
		c0.27,0.66,0.77,1.65,1.11,2.17c0.47,0.73,0.73,0.95,1.11,0.9c0.9-0.13,0.97-1.06,0.25-3.24c-0.64-2.01-1.49-3.21-2.24-3.21
		c-0.21,0-0.81-0.39-1.34-0.88c-0.88-0.81-2.11-1.36-3.06-1.36C486.83,515.05,486.9,515.57,487.47,515.84z"/>
	<path d="M490.07,590.79c0.88-1.13,1.18-1.7,1.18-2.36c0-0.63-0.38-0.86-0.95-0.57c-0.41,0.21-1.29,2.4-1.29,3.22
		C489.01,591.84,489.3,591.77,490.07,590.79z"/>
	<path d="M489.03,581.52c-0.45,0.63-1.59,4.48-1.59,5.37c0,0.77,0.29,0.56,1.5-1.04c1.61-2.13,2.08-2.97,2.08-3.76
		C491.02,580.77,489.8,580.41,489.03,581.52z"/>
	<path d="M370.91,537.08c0.36,0.72,0.91,1.61,1.24,1.95c1.09,1.16,2.31,0.68,2.85-1.13c0.52-1.72,0.38-2.24-1.42-4.96
		c-0.91-1.42-1.99-3.08-2.36-3.73c-0.73-1.24-1.2-1.56-1-0.68c0.18,0.7,0.2,1.86,0.13,4.77
		C370.26,535.63,370.28,535.83,370.91,537.08z"/>
	<path d="M370.55,460.86c0.13,0,0.23-0.25,0.23-0.56c0-0.3-0.11-0.56-0.23-0.56s-0.21,0.25-0.21,0.56
		C370.33,460.61,370.42,460.86,370.55,460.86z"/>
	<path d="M370.66,664.07c-0.5-3.78-1.22-4.01-2.24-0.68c-0.38,1.22-0.86,2.24-1.49,3.05c-1.47,1.93-1.99,3.3-2.22,5.71
		c-0.11,1.16-0.25,2.22-0.32,2.35c-0.07,0.11-0.16,2.69-0.21,5.75c-0.11,6.41-0.27,9.92-0.57,11.8c-0.11,0.75-0.21,1.72-0.21,2.19
		c0,1.95,0.52,0.61,1.7-4.3c0.97-4.12,1.24-5.07,2.02-7.26c0.43-1.22,1.04-2.65,1.33-3.17c1.06-1.88,1.45-3.3,1.58-5.59
		c0.09-1.45,0.32-2.88,0.7-4.1c0.38-1.25,0.52-2.08,0.41-2.56C371.05,666.85,370.84,665.43,370.66,664.07z"/>
	<path d="M367.59,541.08c0.72,0.81,0.79,0.45,0.64-2.9c-0.25-5.36-0.68-7.22-1.61-6.86c-0.77,0.29-1.33,3.94-0.9,5.82
		C366.02,538.34,366.98,540.39,367.59,541.08z"/>
	<path d="M356.13,695.63c-0.2-1.97-0.47-4.39-0.59-5.37c-0.11-1-0.21-2.28-0.21-2.85c0-0.57-0.11-1.33-0.23-1.67
		c-0.21-0.57-0.27-0.59-0.47-0.23c-0.59,1.04-2.88,11.86-2.88,13.51c0.02,0.61,0.11,1.79,0.21,2.63l0.2,1.56l-1.2,2.47
		c-1.85,3.8-1.99,4.62-1.76,9.92c0.25,5.61,0.36,5.66,1.77,1.07c1.06-3.39,1.15-3.58,1.58-3.22c0.88,0.73,1.09,1.59,1.09,4.37
		c0,1.99,0.09,2.81,0.32,3.08c0.18,0.21,0.47,0.36,0.66,0.32c0.3-0.05,0.38-0.56,0.48-2.87c0.13-2.76,0.16-2.83,1.07-4.59
		c0.61-1.15,1.04-2.33,1.18-3.24c0.3-1.92,0.05-6.97-0.47-9.4C356.67,700.08,356.33,697.61,356.13,695.63z"/>
	<path d="M376.37,604.65c0-0.43-1.24-3.17-3.13-6.88c-1.11-2.2-2.17-4.55-2.35-5.25c-0.5-1.88-1.11-3.76-1.77-5.34
		c-0.59-1.4-0.61-1.45-0.23-2.47c0.72-2.04,0.81-2.65,0.99-6.52c0.13-2.83,0.3-4.53,0.68-6.16c0.43-1.79,0.54-2.9,0.54-5.59
		c0.02-3.78-0.43-10.95-0.81-12.99c-0.14-0.75-0.3-2.37-0.39-3.58l-0.14-2.24l-0.38,0.82c-0.21,0.47-0.38,0.9-0.38,0.95
		c0,0.07-0.47,1.06-1,2.2c-0.56,1.13-1.16,2.78-1.38,3.64c-0.54,2.26-1.42,4.96-2.02,6.32c-0.68,1.49-2.79,6.93-3.33,8.56
		c-0.64,2.01-1.11,2.72-2.76,4.28c-2.04,1.95-2.17,2.37-1.61,5.66c0.23,1.36,0.54,3.85,0.66,5.5c0.25,3.48,0.82,5.66,2.38,9.32
		c0.57,1.34,1.38,3.39,1.79,4.51c0.41,1.13,1.15,2.85,1.63,3.8c0.47,0.97,1.4,3.37,2.04,5.34c1.67,5.05,3.35,9.3,3.96,9.89
		c0.63,0.64,1.06,0.66,1.68,0.03c0.48-0.48,0.48-0.56,0.32-6.05c-0.11-4.19-0.25-6.18-0.61-7.95c-0.36-1.86-0.41-2.79-0.29-4.35
		c0.07-1.09,0.23-1.99,0.34-1.99c0.23,0,3.19,3.71,4.34,5.45C375.9,604.72,376.37,605.13,376.37,604.65z"/>
	<path d="M412.97,473.27c0.13,0.86,0.34,1.24,1.2,2.06c0.86,0.82,1.13,0.97,1.65,0.86c0.34-0.07,0.81-0.04,1.02,0.09
		c1.88,1.11,3.03-2.04,1.58-4.41c-0.47-0.77-1.2-1.24-2.33-1.49c-0.39-0.09-0.9-0.36-1.13-0.61c-0.93-1.06-4.28-3.01-4.59-2.7
		c-0.3,0.3,0.57,2.49,1.58,3.9C412.5,471.77,412.86,472.59,412.97,473.27z"/>
	<path d="M367.72,623.39c-0.79-1.04-2.19-3.46-3.78-6.56c-0.57-1.13-1.81-2.44-2.17-2.31c-0.63,0.2-0.39,1.52,1.18,7.11
		c0.38,1.33,0.5,2.4,0.54,5.16c0.05,3.55,0.14,4.37,0.72,6.45c0.18,0.65,0.27,1.25,0.2,1.33c-0.07,0.07-0.68-0.13-1.36-0.47
		c-2.26-1.09-3.51-3.69-3.78-7.88c-0.09-1.11-0.3-2.81-0.5-3.8c-0.59-2.99-0.61-4.48-0.11-7.26c0.27-1.41,0.72-3.1,1.02-3.76
		c0.68-1.49,0.91-3.03,0.61-4.21c-0.13-0.5-0.54-2.06-0.9-3.48c-0.36-1.41-0.9-3.6-1.16-4.87c-0.29-1.25-0.59-2.29-0.66-2.29
		c-0.21,0-0.45,2.33-0.45,4.33c0,1.33-0.14,1.93-0.81,3.51c-1.43,3.39-1.43,3.46-1.4,5.98c0.02,2.06-0.05,2.67-0.56,4.19
		c-0.64,1.93-0.79,4.23-0.36,5.77c0.18,0.68,0.14,0.97-0.21,1.67c-1.13,2.24-2.02,6.84-2.1,10.78c-0.05,2.22,0,2.49,0.57,3.67
		c0.73,1.5,2.44,3.12,4.75,4.5c1.13,0.68,1.7,1.2,2.06,1.86c0.59,1.06,3.31,3.37,5.43,4.6c1.56,0.9,1.79,1.2,3.4,4.32
		c0.5,0.99,1.02,1.92,1.13,2.08c0.64,0.79,0.86,0.2,1.56-4.01c0.21-1.4,0.21-1.95-0.04-2.96c-0.23-1.02-0.25-1.79-0.02-4.23
		c0.14-1.63,0.43-3.53,0.64-4.19c0.29-0.93,0.38-2.08,0.38-4.6c0-2.92-0.07-3.56-0.52-4.98
		C370.51,627.29,369.72,625.99,367.72,623.39z"/>
	<path d="M386.42,445.74c-0.05-0.05-0.66,0.05-1.33,0.23c-0.68,0.18-1.59,0.32-2.06,0.32c-0.86,0.02-3.08,0.73-3.85,1.27
		c-0.25,0.16-0.63,0.3-0.84,0.3c-0.47,0-0.54,0.34-0.13,0.59c0.16,0.11,0.79,0.25,1.4,0.32c1.99,0.23,3.1-0.07,5.05-1.38
		C385.92,446.56,386.6,445.92,386.42,445.74z"/>
	<path d="M384.49,443.52c1.43-0.59,1.77-1.58,0.34-1.02c-0.95,0.39-1.29,0.66-1.29,1.04C383.54,443.91,383.54,443.91,384.49,443.52z
		"/>
	<path d="M376.37,493.96c0,0.59,0.54,0.45,1.49-0.39c0.57-0.5,1.16-0.91,1.33-0.91c0.32,0,0.45,0.73,0.66,3.78
		c0.07,1.02,0.27,2.17,0.47,2.54c0.43,0.84,0.61,0.66,0.66-0.7c0.07-1.15,0.52-2.87,1.07-4.1c0.82-1.81,1.79-4.35,1.95-5.09
		c0.27-1.31,1.86-4.93,2.97-6.82c0.59-0.97,1.02-1.93,0.99-2.13c-0.3-1.58-4.19,1.47-5.79,4.57c-0.48,0.93-2.4,3.51-3.48,4.71
		C378.13,490.06,376.37,493.48,376.37,493.96z"/>
	<path d="M378.39,481.3c-0.57,0.29-2.08,2.58-1.88,2.88c0.2,0.32,0.47,0.21,1.61-0.7c1.24-0.97,1.59-1.68,1.13-2.15
		C379,481.08,378.84,481.08,378.39,481.3z"/>
	<path d="M373.68,480.96c0.34-0.77,0.79-1.95,1-2.63c0.75-2.45,1.09-3.22,1.77-4.01c1.58-1.79,2.63-3.42,2.65-4.07
		c0.02-0.86-0.09-0.95-1.34-1.02c-0.59-0.04-1.54-0.12-2.11-0.21c-2.45-0.34-4.46,1.5-4.46,4.08c0,0.99,0.99,7.88,1.27,8.97
		C372.64,482.7,373.07,482.28,373.68,480.96z"/>
	<path d="M386.08,505.18c1.49,0.91,1.9,0.38,1.04-1.33c-0.29-0.56-0.66-0.95-1.02-1.02c-0.64-0.18-1.22,0.22-1.22,0.82
		c0,0.54-0.13,0.52-0.84-0.02c-0.73-0.59-1.52-0.57-2.42,0.04c-1.07,0.73-1.52,1.61-1.33,2.6c0.16,0.91,2.15,3.01,4.01,4.25
		c0.61,0.39,1.29,0.72,1.52,0.72c0.41,0,0.41-0.02,0.04-0.64c-0.39-0.66-0.39-0.68,0.2-1.15c0.81-0.63,0.79-1.4-0.05-3.01
		C385.15,504.8,385.15,504.6,386.08,505.18z"/>
</g>
</svg>
